<?xml version="1.0" standalone="no"?>
<!DOCTYPE svg PUBLIC "-//W3C//DTD SVG 1.1//EN" "http://www.w3.org/Graphics/SVG/1.1/DTD/svg11.dtd" >
<svg xmlns="http://www.w3.org/2000/svg" xmlns:xlink="http://www.w3.org/1999/xlink" version="1.1">
<metadata>
Created by FontForge 20161013 at Tue Mar 17 00:41:46 2015
 By ,,,
Copyright 2013 Matthew Butterick
</metadata>
<defs>
<font id="ConcourseT2" horiz-adv-x="1085" >
  <font-face 
    font-family="Concourse T2"
    font-weight="250"
    font-stretch="normal"
    units-per-em="2048"
    panose-1="0 0 0 0 0 0 0 0 0 0"
    ascent="1520"
    descent="-528"
    x-height="918"
    cap-height="1393"
    bbox="-51 -471 1860 1870"
    underline-thickness="81"
    underline-position="-468"
    unicode-range="U+0020-FB02"
  />
<missing-glyph horiz-adv-x="748" 
d="M68 0v1365h544v-1365h-544zM136 68h408v1229h-408v-1229z" />
    <glyph glyph-name="uniFB01" unicode="fi" horiz-adv-x="1126" 
d="M66 844l24 74h186v88q0 83 18.5 148.5t54 111t73 75.5t88.5 58l125 18l6 -59q-127 -14 -205 -104t-78 -240v-96h236v-74h-236v-844h-82v844h-210zM823 1315q0 32 20 55t48 23t47.5 -23t19.5 -55t-19.5 -55t-47.5 -23t-48 23t-20 55zM850 0v913l82 11v-924h-82z" />
    <glyph glyph-name="uniFB02" unicode="fl" horiz-adv-x="1126" 
d="M66 844l24 74h186v88q0 83 18.5 148.5t54 111t73 75.5t88.5 58l125 18l6 -59q-127 -14 -205 -104t-78 -240v-96h236v-74h-236v-844h-82v844h-210zM850 0v1393l82 24v-1417h-82z" />
    <glyph glyph-name=".notdef" horiz-adv-x="748" 
d="M68 0v1365h544v-1365h-544zM136 68h408v1229h-408v-1229z" />
    <glyph glyph-name="glyph1" horiz-adv-x="0" 
 />
    <glyph glyph-name="glyph2" horiz-adv-x="682" 
 />
    <glyph glyph-name="space" unicode=" " horiz-adv-x="450" 
 />
    <glyph glyph-name="exclam" unicode="!" horiz-adv-x="634" 
d="M238 76q0 37 23 63.5t56 26.5q32 0 56 -26.5t24 -63.5q0 -38 -23.5 -64t-56.5 -26q-34 0 -56.5 26t-22.5 64zM258 1393h102l-8 -482l-10 -505h-57l-13 503z" />
    <glyph glyph-name="quotedbl" unicode="&#x22;" horiz-adv-x="819" 
d="M197 1393h118l-39 -562h-43zM504 1393h119l-39 -562h-43z" />
    <glyph glyph-name="numbersign" unicode="#" horiz-adv-x="1044" 
d="M20 537l13 75l262 -47l92 393l-237 43l12 76l244 -43l104 447l76 -19l-105 -442l232 -41l116 483l76 -18l-117 -477l236 -41l-12 -76l-242 43l-96 -393l221 -39l-12 -76l-228 39l-133 -549l-76 19l134 544l-226 39l-135 -581l-76 18l136 578zM373 553l225 -41l96 393
l-229 41z" />
    <glyph glyph-name="dollar" unicode="$" horiz-adv-x="962" 
d="M90 193l41 75q113 -107 268 -125l56 559q-171 84 -249.5 165.5t-78.5 185.5q0 133 105.5 221t269.5 88h18l19 172l69 -8l-18 -172q150 -28 264 -121l-45 -66q-126 92 -225 109l-54 -520q1 0 4.5 -1t4.5 -1q323 -161 323 -373q0 -160 -111 -240t-290 -82l-19 -194l-69 8
l18 190q-88 12 -176 51t-125 79zM217 1053q0 -78 53 -132.5t195 -129.5l49 493h-10q-141 0 -214 -64t-73 -167zM469 139q140 0 221.5 58.5t81.5 177.5q0 87 -63 158t-187 137z" />
    <glyph glyph-name="percent" unicode="%" horiz-adv-x="1392" 
d="M113 1079q0 144 74.5 239t187.5 95q124 0 199 -93.5t75 -240.5q0 -139 -78 -230t-190 -91q-115 0 -191.5 90.5t-76.5 230.5zM184 18l496 695l471 696l63 -33l-485 -690l-481 -704zM195 1081q0 -110 53.5 -181t138.5 -71q75 0 127.5 70.5t52.5 181.5q0 118 -51 189
t-135 71q-80 0 -133 -73t-53 -187zM743 301q0 144 75 239t188 95q124 0 199 -93.5t75 -240.5q0 -139 -78 -230t-190 -91q-115 0 -192 90.5t-77 230.5zM825 303q0 -110 54 -181t139 -71q75 0 127.5 70.5t52.5 181.5q0 118 -51 189t-135 71q-80 0 -133.5 -73t-53.5 -187z" />
    <glyph glyph-name="ampersand" unicode="&#x26;" horiz-adv-x="1331" 
d="M133 397q0 336 324 447v10q-74 24 -121.5 68.5t-63.5 88t-16 89.5q0 132 113.5 222.5t269.5 90.5q97 0 168 -20.5t143 -61.5l-41 -71q-129 73 -274 73q-123 0 -206 -70.5t-83 -166.5q0 -81 62.5 -136.5t171.5 -76.5v-76q-154 -19 -255.5 -127.5t-101.5 -267.5
q0 -161 120.5 -257t303.5 -96q181 0 299.5 100.5t118.5 254.5q0 59 -16.5 119.5t-44.5 103.5l-173 -47l-22 76l436 118l23 -73l-181 -49q66 -107 66 -242q0 -103 -42 -187.5t-113 -139t-161.5 -84t-189.5 -29.5q-228 0 -371 120.5t-143 296.5z" />
    <glyph glyph-name="quotesingle" unicode="'" horiz-adv-x="512" 
d="M197 1393h118l-39 -562h-43z" />
    <glyph glyph-name="parenleft" unicode="(" horiz-adv-x="716" 
d="M143 557q0 297 132.5 551.5t357.5 396.5l45 -57q-205 -138 -325 -375t-120 -518q0 -253 122.5 -482t326.5 -380l-49 -55q-227 167 -358.5 404.5t-131.5 514.5z" />
    <glyph glyph-name="parenright" unicode=")" horiz-adv-x="716" 
d="M35 -307q204 151 326 380t122 482q0 281 -119.5 518t-324.5 375l45 57q225 -141 357 -396t132 -552q0 -278 -131 -515t-358 -404z" />
    <glyph glyph-name="asterisk" unicode="*" 
d="M152 999l32 95l330 -109l-16 408h108l-39 -408l336 129l33 -92l-352 -90l272 -324l-76 -53l-239 342l-236 -352l-74 55l269 332z" />
    <glyph glyph-name="plus" unicode="+" 
d="M68 575v82h434v435h82v-435h434v-82h-434v-434h-82v434h-434z" />
    <glyph glyph-name="comma" unicode="," horiz-adv-x="512" 
d="M45 -319q158 276 234 499h98v-12q-113 -288 -256 -487h-76z" />
    <glyph glyph-name="hyphen" unicode="-" horiz-adv-x="696" 
d="M102 453v77h492v-77h-492z" />
    <glyph glyph-name="period" unicode="." horiz-adv-x="552" 
d="M197 76q0 37 23 63.5t56 26.5q32 0 56 -26.5t24 -63.5q0 -38 -23.5 -64t-56.5 -26q-34 0 -56.5 26t-22.5 64z" />
    <glyph glyph-name="slash" unicode="/" horiz-adv-x="942" 
d="M20 -328l820 1762h82l-820 -1762h-82z" />
    <glyph glyph-name="zero" unicode="0" horiz-adv-x="1208" 
d="M123 711q0 138 25 253.5t69 197.5t105 139t133 84.5t153 27.5q212 0 344.5 -186.5t132.5 -515.5q0 -357 -131 -544t-346 -187q-102 0 -188.5 44t-153.5 131.5t-105 229.5t-38 326zM213 715q0 -319 106.5 -487.5t290.5 -168.5q183 0 284 172t101 484q0 282 -107.5 450
t-283.5 168q-171 0 -281 -163t-110 -455z" />
    <glyph glyph-name="one" unicode="1" horiz-adv-x="921" 
d="M176 1352l365 51l16 -17v-1386h-86v1315l-285 -41z" />
    <glyph glyph-name="two" unicode="2" horiz-adv-x="1105" 
d="M98 72q283 223 454.5 401t240.5 310t69 253q0 133 -89 215t-232 82q-180 0 -330 -125l-37 70q62 58 165.5 96.5t201.5 38.5q185 0 298 -101t113 -274q0 -111 -48 -224.5t-146 -233t-227 -238.5t-310 -260l2 -4h770v-78h-874z" />
    <glyph glyph-name="three" unicode="3" horiz-adv-x="1064" 
d="M115 158l2 2q88 -55 167.5 -78t172.5 -23q166 0 270 89.5t104 238.5q0 130 -84 212.5t-212 82.5l-236 -12l16 92h201q121 0 201 77.5t80 198.5q0 142 -88 218.5t-226 76.5q-145 0 -299 -94h-6l10 90q137 84 299 84q186 0 293 -99.5t107 -266.5q0 -106 -62.5 -193
t-169.5 -123v-8q124 -26 195.5 -122.5t71.5 -209.5q0 -188 -129.5 -299.5t-337.5 -111.5q-185 0 -338 86z" />
    <glyph glyph-name="four" unicode="4" horiz-adv-x="1126" 
d="M98 461l664 932h90v-901h188v-78h-188v-414h-86v414h-635zM223 504l8 -12h535v759h-10z" />
    <glyph glyph-name="five" unicode="5" horiz-adv-x="1105" 
d="M141 10l23 78q79 -29 184 -29q139 0 245.5 31.5t170.5 87t96.5 126.5t32.5 155q0 169 -129.5 268.5t-333.5 99.5q-134 0 -258 -26l-8 6l74 586h692l-17 -88l-606 10l-51 -418q61 10 178 10q253 0 401 -125.5t148 -314.5q0 -221 -164.5 -354t-472.5 -133q-129 0 -205 30z
" />
    <glyph glyph-name="six" unicode="6" horiz-adv-x="1105" 
d="M123 535q0 128 34 247t92.5 212.5t137 171.5t167.5 130t183 82.5t185 34.5l-17 -80q-137 -12 -260.5 -74.5t-210 -155t-142.5 -203.5t-69 -222l4 -2q69 69 161.5 106t184.5 37q84 0 161 -25.5t140.5 -75t101.5 -132.5t38 -189q0 -128 -59.5 -225t-154.5 -144.5
t-208 -47.5q-116 0 -207 44t-147.5 121t-85.5 176t-29 214zM213 510q0 -200 104 -325.5t271 -125.5q150 0 243 94t93 240q0 74 -22 134.5t-57.5 99t-83.5 64.5t-96.5 37t-99.5 11q-96 0 -187.5 -39.5t-160.5 -115.5q-4 -50 -4 -74z" />
    <glyph glyph-name="seven" unicode="7" horiz-adv-x="1024" 
d="M98 1305l8 88h861l20 -25q-500 -645 -534 -1368h-93q28 369 164 710.5t344 598.5l-4 6z" />
    <glyph glyph-name="eight" unicode="8" 
d="M117 338q0 123 89 224.5t234 158.5v4q-146 73 -211 164t-65 184q0 146 110.5 243t272.5 97q158 0 265.5 -90t107.5 -238q0 -121 -67 -207t-208 -155v-6q177 -85 249.5 -179.5t72.5 -209.5q0 -154 -119 -251t-305 -97q-188 0 -307 101t-119 257zM207 338q0 -124 97 -201.5
t237 -77.5q151 0 243.5 73t92.5 198q0 209 -349 356q-158 -58 -239.5 -151t-81.5 -197zM254 1081q0 -96 71.5 -174t229.5 -151q274 96 274 319q0 118 -78 188t-202 70q-129 0 -212 -72.5t-83 -179.5z" />
    <glyph glyph-name="nine" unicode="9" horiz-adv-x="1105" 
d="M102 985q0 100 37 183t97.5 135.5t135 81t152.5 28.5q112 0 202 -42.5t148 -117.5t88.5 -176t30.5 -219q0 -153 -35 -283t-97.5 -227t-152 -173t-193.5 -125.5t-228 -80.5l-43 70l2 4q123 24 227 74.5t176.5 115t125.5 143.5t81.5 158t38.5 160l-8 6q-73 -62 -167 -94.5
t-188 -32.5q-63 0 -122 13.5t-116 45t-99 78t-67.5 117.5t-25.5 158zM193 985q0 -90 30 -157t80.5 -103.5t107.5 -54t121 -17.5q106 0 206 35.5t161 99.5q4 66 4 95q0 200 -104 325t-271 125q-148 0 -241.5 -98.5t-93.5 -249.5z" />
    <glyph glyph-name="colon" unicode=":" horiz-adv-x="552" 
d="M197 76q0 37 23 63.5t56 26.5q32 0 56 -26.5t24 -63.5q0 -38 -23.5 -64t-56.5 -26q-34 0 -56.5 26t-22.5 64zM197 731q0 37 23 63.5t56 26.5q32 0 56 -26.5t24 -63.5q0 -38 -23.5 -64t-56.5 -26q-34 0 -56.5 26t-22.5 64z" />
    <glyph glyph-name="semicolon" unicode=";" horiz-adv-x="593" 
d="M70 -319q155 271 233 499h98v-12q-113 -288 -256 -487h-75zM236 731q0 37 23 63.5t56 26.5q32 0 56 -26.5t24 -63.5q0 -38 -23.5 -64t-56.5 -26q-34 0 -56.5 26t-22.5 64z" />
    <glyph glyph-name="less" unicode="&#x3c;" 
d="M102 625v65l828 420l37 -74l-750 -379l750 -378l-37 -74z" />
    <glyph glyph-name="equal" unicode="=" 
d="M88 362v82h909v-82h-909zM88 772v82h909v-82h-909z" />
    <glyph glyph-name="greater" unicode="&#x3e;" 
d="M119 279l749 378l-749 379l37 74l827 -420v-65l-827 -420z" />
    <glyph glyph-name="question" unicode="?" horiz-adv-x="921" 
d="M152 1282l8 84q107 47 235 47q199 0 309.5 -101.5t110.5 -267.5q0 -73 -26.5 -136.5t-70 -108t-101 -78t-118.5 -52t-124 -24.5v-211h-86v279q436 38 436 327q0 136 -86.5 214.5t-239.5 78.5q-148 0 -239 -51h-8zM252 76q0 37 23 63.5t57 26.5q32 0 56 -26.5t24 -63.5
q0 -38 -23.5 -64t-56.5 -26q-34 0 -57 26t-23 64z" />
    <glyph glyph-name="at" unicode="@" horiz-adv-x="1413" 
d="M164 604q0 211 83 396t233.5 299t332.5 114q177 0 278.5 -88.5t90.5 -267.5l-39 -568q-3 -50 13 -98t42 -72l-2 -8l-63 -28q-25 20 -37 44.5t-23 65.5h-10q-104 -104 -260 -104q-128 0 -203.5 77.5t-75.5 221.5q0 157 99 257.5t251 100.5q54 0 116 -13t102 -34l10 141
q10 148 -70 219.5t-223 71.5q-150 0 -278 -98.5t-202.5 -266.5t-74.5 -364q0 -170 41 -304.5t111.5 -217.5t161.5 -126.5t196 -43.5q165 0 287 88h6l28 -72q-64 -50 -153.5 -74t-169.5 -24q-269 0 -433.5 208.5t-164.5 567.5zM614 588q0 -121 57.5 -170t159.5 -49
q58 0 126.5 30t105.5 76l22 344q-95 53 -206 53q-118 0 -191.5 -75t-73.5 -209z" />
    <glyph glyph-name="A" unicode="A" horiz-adv-x="1392" 
d="M90 27l596 1398h21l596 -1398l-76 -41l-205 481h-651l-205 -481zM403 545h586l-289 682h-6z" />
    <glyph glyph-name="B" unicode="B" horiz-adv-x="1146" 
d="M190 0v1393h334q107 0 189 -27t131.5 -75t74.5 -110t25 -137q0 -111 -66 -193.5t-176 -115.5v-8q141 -29 228.5 -119t87.5 -229q0 -182 -117 -280.5t-326 -98.5h-385zM276 78h299q161 0 257 74t96 221q0 146 -111 229.5t-276 83.5h-265v-608zM276 764h259
q132 0 225.5 73.5t93.5 202.5q0 127 -88 201t-246 74h-244v-551z" />
    <glyph glyph-name="C" unicode="C" horiz-adv-x="1351" 
d="M129 674q0 137 36 256t99 206.5t148 150.5t185 94.5t208 31.5q245 0 432 -153l-41 -70q-74 64 -178 104q-101 39 -211 39h-6q-117 -2 -221.5 -46.5t-185 -125.5t-128 -205t-47.5 -274q0 -180 73 -321.5t207 -221.5t306 -80q228 0 416 148l39 -66q-78 -69 -204.5 -115
t-254.5 -46q-195 0 -349 89.5t-238.5 247.5t-84.5 357z" />
    <glyph glyph-name="D" unicode="D" horiz-adv-x="1372" 
d="M190 0v1393h361q146 0 273 -50.5t219.5 -141t146 -224.5t53.5 -293q0 -207 -89 -363.5t-245 -238.5t-356 -82h-363zM276 78h285q275 0 433.5 167.5t158.5 442.5q0 129 -35 236t-92.5 178t-135 120t-160.5 71t-171 22h-283v-1237z" />
    <glyph glyph-name="E" unicode="E" horiz-adv-x="1044" 
d="M190 0v1393h732v-78h-646v-551h584v-78h-584v-608h666v-78h-752z" />
    <glyph glyph-name="F" unicode="F" horiz-adv-x="1003" 
d="M190 0v1393h707v-78h-621v-551h560v-78h-560v-686h-86z" />
    <glyph glyph-name="G" unicode="G" horiz-adv-x="1454" 
d="M129 674q0 212 85.5 380.5t240 263.5t350.5 95q254 0 434 -151l-43 -70q-163 141 -395 141q-117 0 -222 -44.5t-185.5 -126t-127.5 -206t-47 -274.5q0 -279 165 -451t429 -172q114 0 213.5 37.5t155.5 89.5v441h-437v78h523v-558q-92 -77 -211 -122t-242 -45
q-159 0 -290.5 55t-217 150t-132 220.5t-46.5 268.5z" />
    <glyph glyph-name="H" unicode="H" horiz-adv-x="1413" 
d="M190 0v1393h86v-629h861v629h86v-1393h-86v686h-861v-686h-86z" />
    <glyph glyph-name="I" unicode="I" horiz-adv-x="552" 
d="M233 0v1393h86v-1393h-86z" />
    <glyph glyph-name="J" unicode="J" horiz-adv-x="839" 
d="M35 43l37 74q98 -58 190 -58q148 0 224.5 100t76.5 314v920h86v-940q0 -235 -105 -354t-282 -119q-133 0 -227 63z" />
    <glyph glyph-name="K" unicode="K" horiz-adv-x="1228" 
d="M190 0v1393h86v-748h5l749 762l60 -49v-4l-566 -572l631 -745v-6l-61 -43l-625 743l-193 -192v-539h-86z" />
    <glyph glyph-name="L" unicode="L" horiz-adv-x="1003" 
d="M190 0v1393h86v-1315h639v-78h-725z" />
    <glyph glyph-name="M" unicode="M" horiz-adv-x="1740" 
d="M133 6l223 1403l37 4l479 -1231h5l471 1231l36 -4l224 -1403l-84 -18l-183 1157l-12 2l-448 -1167h-21l-448 1167l-13 -2l-182 -1157z" />
    <glyph glyph-name="N" unicode="N" horiz-adv-x="1536" 
d="M190 0v1391l50 16l1011 -1239l9 4v1221h86v-1393l-50 -14l-1011 1237l-9 -4v-1219h-86z" />
    <glyph glyph-name="O" unicode="O" horiz-adv-x="1576" 
d="M129 686q0 160 55.5 298.5t148 231t212 145t246.5 52.5q131 0 250 -51.5t209.5 -144t144 -230.5t53.5 -301q0 -143 -47.5 -272t-131.5 -225t-208.5 -152.5t-269.5 -56.5q-146 0 -270.5 55t-210 150t-133.5 225t-48 276zM219 690q0 -128 39.5 -242t111 -201t181 -137.5
t240.5 -50.5q127 0 235 51t180 137t112 201t40 242q0 280 -159.5 461.5t-407.5 181.5q-114 0 -217.5 -46t-182 -127.5t-125.5 -204t-47 -265.5z" />
    <glyph glyph-name="P" unicode="P" horiz-adv-x="1064" 
d="M190 0v1393h334q193 0 312.5 -106.5t119.5 -285.5q0 -93 -35.5 -167.5t-96.5 -122t-139.5 -72.5t-168.5 -25h-240v-614h-86zM276 692h240q67 0 127 17t111 52t81.5 95.5t30.5 140.5q0 144 -95 231t-245 87h-250v-623z" />
    <glyph glyph-name="Q" unicode="Q" horiz-adv-x="1576" 
d="M129 711q0 185 87 346.5t237.5 258.5t326.5 97q145 0 271 -56t212.5 -151t135.5 -223.5t49 -271.5q0 -202 -83.5 -366t-236.5 -258.5t-346 -94.5q-81 0 -106 8l-4 -8q151 -144 290 -218q129 -67 272 -67h23l-28 -86q-91 0 -175 23.5t-148.5 62t-125 84.5t-114.5 92
t-106 84.5t-110.5 63.5t-117.5 26l41 80q-244 209 -244 574zM219 715q0 -128 38.5 -244t109 -205t178 -141.5t237.5 -52.5q134 0 245 52.5t182 141.5t110 204.5t39 244.5q0 81 -21 165t-67 165.5t-112 145.5t-164 103t-214 39q-121 0 -228.5 -56t-179 -145t-112.5 -198.5
t-41 -218.5z" />
    <glyph glyph-name="R" unicode="R" horiz-adv-x="1167" 
d="M190 0v1393h334q210 0 331.5 -102t121.5 -277q0 -320 -342 -387l436 -596v-6l-70 -39l-458 628h-267v-614h-86zM276 692h242q77 0 140.5 17t116.5 53t82.5 100t29.5 152q0 141 -97.5 221t-263.5 80h-250v-623z" />
    <glyph glyph-name="S" unicode="S" horiz-adv-x="1044" 
d="M125 129l45 72h2q133 -142 344 -142q162 0 237.5 73.5t75.5 197.5q0 105 -69.5 182t-245.5 172q-84 45 -139 78.5t-102.5 70.5t-73.5 73t-40 78.5t-14 94.5q0 133 102 233.5t273 100.5q109 0 202.5 -39t158.5 -104l-43 -62h-7q-72 68 -146 97.5t-165 29.5
q-133 0 -208.5 -69.5t-75.5 -171.5q0 -100 71.5 -173t270.5 -178q189 -100 265.5 -192.5t76.5 -231.5q0 -155 -115.5 -247t-292.5 -92q-130 0 -234.5 45t-152.5 104z" />
    <glyph glyph-name="T" unicode="T" horiz-adv-x="1146" 
d="M57 1315v78h1033v-78h-474v-1315h-86v1315h-473z" />
    <glyph glyph-name="U" unicode="U" horiz-adv-x="1413" 
d="M190 506v887h86v-873q0 -238 114.5 -350.5t316.5 -112.5q199 0 314.5 112t115.5 351v873h86v-887q0 -87 -19 -164.5t-60 -144t-101 -114.5t-146 -75.5t-190 -27.5q-142 0 -245 42t-161 117t-84.5 165.5t-26.5 201.5z" />
    <glyph glyph-name="V" unicode="V" horiz-adv-x="1249" 
d="M57 1372l82 31l486 -1231h4l487 1231l76 -31l-557 -1392h-21z" />
    <glyph glyph-name="W" unicode="W" horiz-adv-x="1781" 
d="M57 1372l84 31l406 -1190h8l322 1206h28l328 -1206h8l399 1190l84 -31l-485 -1392h-29l-315 1171h-4l-320 -1171h-28z" />
    <glyph glyph-name="X" unicode="X" horiz-adv-x="1208" 
d="M82 27l475 671l-457 660l68 45l440 -633l447 633l65 -47l-463 -658l469 -673l-71 -45l-449 647l-456 -647z" />
    <glyph glyph-name="Y" unicode="Y" horiz-adv-x="1208" 
d="M68 1358l67 45l469 -694h4l461 694l72 -45l-494 -737v-621h-86v621z" />
    <glyph glyph-name="Z" unicode="Z" horiz-adv-x="1208" 
d="M49 10l932 1297l-6 8h-836v78h985l9 -11l-930 -1294l8 -10h899v-78h-1055z" />
    <glyph glyph-name="bracketleft" unicode="[" horiz-adv-x="757" 
d="M270 -336v1819l451 -8v-78l-367 8v-1663l379 8v-78z" />
    <glyph glyph-name="backslash" unicode="\" horiz-adv-x="942" 
d="M20 1434h82l820 -1762h-82z" />
    <glyph glyph-name="bracketright" unicode="]" horiz-adv-x="757" 
d="M25 -250l378 -8v1663l-366 -8v78l450 8v-1819l-462 8v78z" />
    <glyph glyph-name="asciicircum" unicode="^" 
d="M61 643l465 772h35l463 -772l-74 -51l-397 670h-16l-404 -670z" />
    <glyph glyph-name="underscore" unicode="_" 
d="M-51 -348h1188v-82h-1188v82z" />
    <glyph glyph-name="grave" unicode="`" horiz-adv-x="1024" 
d="M276 1282v8h101l207 -325v-7h-54z" />
    <glyph glyph-name="a" unicode="a" horiz-adv-x="921" 
d="M109 236q0 56 20 105t62 91.5t115.5 67t170.5 24.5q87 0 189 -20v112q0 66 -19.5 115.5t-51.5 77t-67 40.5t-73 13q-132 0 -265 -88l-32 68q143 96 307 96q53 0 102 -17.5t90.5 -52.5t66 -94.5t24.5 -136.5v-449q0 -54 21 -96t54 -61v-4l-59 -50q-79 62 -90 152h-6
q-97 -149 -279 -149q-122 0 -201 72t-79 184zM195 236q0 -82 56 -131.5t144 -49.5q95 0 167 53.5t104 147.5v174q-99 23 -191 23q-136 0 -208 -57t-72 -160z" />
    <glyph glyph-name="b" unicode="b" horiz-adv-x="1003" 
d="M154 86v1307l82 24v-600h6q49 56 117 88.5t143 32.5q172 0 280.5 -134t108.5 -331q0 -234 -120.5 -363.5t-317.5 -129.5q-73 0 -155.5 27.5t-143.5 78.5zM236 129q39 -34 97 -54t122 -20q162 0 256 108.5t94 309.5q0 70 -19 137t-55.5 124.5t-99.5 92.5t-142 35
q-73 0 -141 -38t-112 -105v-590z" />
    <glyph glyph-name="c" unicode="c" horiz-adv-x="819" 
d="M113 430q0 107 33 202.5t87.5 162t127.5 105t151 38.5q81 0 136.5 -25t111.5 -77l-41 -64q-93 90 -207 90q-134 0 -223.5 -122.5t-89.5 -305.5q0 -178 84.5 -278.5t216.5 -100.5q114 0 213 88l39 -61q-44 -44 -114 -73t-140 -29q-122 0 -210.5 60.5t-131.5 161t-43 228.5
z" />
    <glyph glyph-name="d" unicode="d" horiz-adv-x="1003" 
d="M113 414q0 226 109.5 375t285.5 149q74 0 144 -34t110 -89h6v578l82 24v-1417h-64l-18 135h-6q-54 -72 -136 -113.5t-163 -41.5q-155 0 -252.5 117t-97.5 317zM199 426q0 -180 75 -275.5t199 -95.5q80 0 161 50t134 137v473q-46 66 -115 106.5t-145 40.5
q-98 0 -169.5 -60t-105.5 -157.5t-34 -218.5z" />
    <glyph glyph-name="e" unicode="e" horiz-adv-x="921" 
d="M113 434q0 219 109 361.5t272 142.5q138 0 225.5 -104t87.5 -256q0 -88 -21 -140h-587q1 -100 25 -175t66.5 -119.5t96 -66.5t117.5 -22q63 0 124.5 24t102.5 66h6l29 -63q-46 -44 -122 -73t-157 -29q-73 0 -139 28t-119 82t-84.5 143t-31.5 201zM201 508h514q7 41 7 79
q0 103 -51 176q-69 99 -182 99q-118 0 -197.5 -101t-90.5 -253z" />
    <glyph glyph-name="f" unicode="f" horiz-adv-x="655" 
d="M66 844l24 74h186v88q0 83 18.5 148.5t54 111t73 75.5t88.5 58l125 18l6 -59q-127 -14 -205 -104t-78 -240v-96h236v-74h-236v-844h-82v844h-210z" />
    <glyph glyph-name="g" unicode="g" horiz-adv-x="1003" 
d="M113 424q0 141 45 256.5t136 186.5t212 71q68 0 139.5 -31t116.5 -88h6l18 99h64v-904q0 -107 -32 -191.5t-86.5 -137.5t-124.5 -81t-150 -28q-164 0 -279 88l39 68h4q54 -42 109 -61t131 -19q60 0 113 19.5t97 59.5t70 111t27 166v127h-6q-28 -44 -68.5 -74.5t-83.5 -44
t-75.5 -19t-61.5 -5.5q-168 0 -264 112.5t-96 319.5zM199 424q0 -177 76 -266.5t206 -89.5q85 0 164 42t123 130v471q-34 64 -108 107.5t-152 43.5q-141 0 -225 -118.5t-84 -319.5z" />
    <glyph glyph-name="h" unicode="h" horiz-adv-x="983" 
d="M154 0v1393l82 24v-629h6q62 68 150.5 109t176.5 41q116 0 188 -75.5t72 -227.5v-635h-81v623q0 121 -54 180t-143 59q-86 0 -170.5 -45t-144.5 -127v-690h-82z" />
    <glyph glyph-name="i" unicode="i" horiz-adv-x="471" 
d="M168 1315q0 32 20 55t48 23t47.5 -23t19.5 -55t-19.5 -55t-47.5 -23t-48 23t-20 55zM195 0v913l81 11v-924h-81z" />
    <glyph glyph-name="j" unicode="j" horiz-adv-x="471" 
d="M80 -393q60 56 87.5 133.5t27.5 206.5v966l81 11v-979q0 -132 -28.5 -215t-79.5 -142l-84 -12zM168 1315q0 32 20 55t48 23t47.5 -23t19.5 -55t-19.5 -55t-47.5 -23t-48 23t-20 55z" />
    <glyph glyph-name="k" unicode="k" horiz-adv-x="901" 
d="M154 0v1393l82 24v-956h4l508 477l53 -43v-6l-395 -375l417 -483v-6l-57 -45l-422 485l-108 -103v-362h-82z" />
    <glyph glyph-name="l" unicode="l" horiz-adv-x="471" 
d="M195 0v1393l81 24v-1417h-81z" />
    <glyph glyph-name="m" unicode="m" horiz-adv-x="1536" 
d="M154 0v918h67l15 -132h8q61 67 145 109.5t176 42.5q77 0 140.5 -37t95.5 -115h6q166 152 342 152q96 0 164.5 -74.5t68.5 -216.5v-647h-82v643q0 103 -49.5 161t-124.5 58q-89 0 -175.5 -50.5t-141.5 -127.5v-684h-82v664q0 103 -56 150.5t-128 47.5q-87 0 -170.5 -49
t-136.5 -129v-684h-82z" />
    <glyph glyph-name="n" unicode="n" horiz-adv-x="983" 
d="M154 0v918h67l15 -132h6q64 69 149 110.5t174 41.5q117 0 190.5 -74.5t73.5 -222.5v-641h-81v625q0 121 -54 179t-147 58q-85 0 -167.5 -46.5t-143.5 -125.5v-690h-82z" />
    <glyph glyph-name="o" unicode="o" horiz-adv-x="1003" 
d="M113 451q0 211 107 349t274 138q181 0 289 -137t108 -350q0 -203 -113.5 -337t-275.5 -134q-164 0 -276.5 133.5t-112.5 337.5zM199 451q0 -171 85 -283.5t218 -112.5q130 0 216.5 113t86.5 283q0 178 -85.5 294.5t-225.5 116.5q-130 0 -212.5 -117t-82.5 -294z" />
    <glyph glyph-name="p" unicode="p" horiz-adv-x="1003" 
d="M154 -418v1336h63l19 -101h4q112 121 282 121q52 0 103 -18.5t99.5 -57.5t85 -94.5t59 -136t22.5 -174.5q0 -116 -31.5 -208.5t-85 -150t-120 -88t-140.5 -30.5q-83 0 -160 38.5t-114 96.5h-4v-508zM236 223q36 -75 107.5 -121.5t160.5 -46.5q56 0 106.5 21t95.5 65
t72 124.5t27 187.5q0 90 -19.5 162.5t-50.5 117.5t-71.5 75t-79.5 42t-78 12q-87 0 -157.5 -38.5t-112.5 -104.5v-496z" />
    <glyph glyph-name="q" unicode="q" horiz-adv-x="1003" 
d="M113 418q0 137 46.5 254.5t138 191.5t210.5 74q148 0 254 -123h8l25 103h55v-1311l-82 -25v553h-6q-104 -155 -305 -155q-145 0 -244.5 115t-99.5 323zM199 422q0 -173 72.5 -270t197.5 -97q89 0 167 47t132 142v467q-40 66 -110 108.5t-140 42.5q-100 0 -173.5 -60.5
t-109.5 -159t-36 -220.5z" />
    <glyph glyph-name="r" unicode="r" horiz-adv-x="655" 
d="M154 0v918h82v-252h6q41 119 124 193.5t173 74.5q41 0 61 -16v-82h-4q-24 16 -59 16q-93 0 -181.5 -104t-119.5 -250v-498h-82z" />
    <glyph glyph-name="s" unicode="s" horiz-adv-x="757" 
d="M100 72l37 69h4q54 -44 106.5 -65t121.5 -21q89 0 142.5 42t53.5 112q0 73 -47 123.5t-172 113.5q-120 61 -176.5 120t-56.5 145q0 93 69 160t187 67q132 0 258 -107l-43 -61h-4q-112 92 -215 92q-79 0 -122.5 -42.5t-43.5 -104.5q0 -30 10 -55t24.5 -44t48.5 -42
t64.5 -39.5t89.5 -47.5q113 -59 164 -124.5t51 -145.5q0 -75 -42 -130.5t-104.5 -81t-135.5 -25.5q-81 0 -154 26.5t-115 65.5z" />
    <glyph glyph-name="t" unicode="t" horiz-adv-x="634" 
d="M55 844l25 74h196v284l82 25v-309h226v-74h-226v-844h-82v844h-221z" />
    <glyph glyph-name="u" unicode="u" horiz-adv-x="983" 
d="M154 287v631h82v-613q0 -139 54 -194.5t148 -55.5q85 0 171 48t139 124v691h81v-918h-67l-14 129h-7q-65 -69 -148.5 -109t-172.5 -40q-50 0 -95.5 16.5t-84.5 51t-62.5 96t-23.5 143.5z" />
    <glyph glyph-name="v" unicode="v" horiz-adv-x="901" 
d="M72 905l80 25l288 -772h9l301 772l79 -25l-376 -925h-23z" />
    <glyph glyph-name="w" unicode="w" horiz-adv-x="1310" 
d="M72 905l80 25l260 -737h10l233 745h21l223 -745h10l250 737l80 -27l-338 -923h-20l-211 727h-8l-234 -727h-20z" />
    <glyph glyph-name="x" unicode="x" horiz-adv-x="901" 
d="M86 23l317 450l-297 420l64 41l279 -395l280 395l64 -41l-297 -420l319 -450l-63 -41l-301 426l-304 -431z" />
    <glyph glyph-name="y" unicode="y" horiz-adv-x="901" 
d="M72 905l80 25l286 -772h6l306 772l79 -25l-436 -1073q-26 -69 -68 -132t-85 -93l-105 -31l-12 55q90 34 154 137.5t120 282.5z" />
    <glyph glyph-name="z" unicode="z" horiz-adv-x="860" 
d="M55 10l582 828l-4 6h-527v74h662l6 -11l-577 -827l2 -6h573v-74h-711z" />
    <glyph glyph-name="braceleft" unicode="{" horiz-adv-x="757" 
d="M125 537v102q118 0 197 63t79 152q0 72 -36.5 189.5t-36.5 199.5q0 114 102.5 173t300.5 59v-70q-147 0 -234 -43.5t-87 -130.5q0 -71 39.5 -192.5t39.5 -194.5q0 -92 -68 -156.5t-171 -89.5v-14q99 -9 169 -77.5t70 -168.5q0 -69 -39.5 -191t-39.5 -202q0 -203 321 -203
v-70q-215 0 -309 67.5t-94 194.5q0 79 36.5 201.5t36.5 188.5q0 102 -76 157.5t-200 55.5z" />
    <glyph glyph-name="bar" unicode="|" 
d="M500 -471v2007h86v-2007h-86z" />
    <glyph glyph-name="braceright" unicode="}" horiz-adv-x="757" 
d="M27 -258q321 0 321 203q0 80 -40 202t-40 191q0 100 70.5 168.5t169.5 77.5v14q-103 25 -171.5 89.5t-68.5 156.5q0 73 40 194.5t40 192.5q0 87 -87 130.5t-234 43.5v70q198 0 300.5 -59t102.5 -173q0 -82 -37 -199.5t-37 -189.5q0 -89 79.5 -152t197.5 -63v-102
q-124 0 -200.5 -56t-76.5 -157q0 -66 37 -188.5t37 -201.5q0 -127 -94 -194.5t-309 -67.5v70z" />
    <glyph glyph-name="asciitilde" unicode="~" 
d="M76 416q0 159 77.5 251.5t186.5 92.5q55 0 105 -28t87 -68t71.5 -79.5t74.5 -67.5t80 -28q84 0 129 70.5t45 196.5h86q0 -150 -72.5 -247t-189.5 -97q-57 0 -107 27.5t-86 67t-69.5 79t-72.5 67t-81 27.5q-80 0 -129 -75.5t-49 -188.5h-86z" />
    <glyph glyph-name="uni00A0" unicode="&#xa0;" horiz-adv-x="450" 
 />
    <glyph glyph-name="exclamdown" unicode="&#xa1;" horiz-adv-x="634" 
d="M238 872q0 38 23.5 64.5t55.5 26.5q34 0 57 -26.5t23 -64.5q0 -37 -23 -63.5t-57 -26.5q-32 0 -55.5 26.5t-23.5 63.5zM274 -444l9 481l10 506h57l12 -504l15 -483h-103z" />
    <glyph glyph-name="cent" unicode="&#xa2;" horiz-adv-x="880" 
d="M115 655q0 116 34.5 213.5t92 160.5t127.5 99t145 41l23 226l67 -11l-22 -215q67 -6 116.5 -28.5t108.5 -67.5l-41 -69q-92 82 -191 90l-81 -820q12 -2 38 -2q128 0 230 88l31 -65q-50 -42 -124 -70t-149 -28h-35l-18 -197l-72 10l19 199q-134 34 -216.5 148.5
t-82.5 297.5zM201 659q0 -315 221 -374l84 809q-137 -15 -221 -133.5t-84 -301.5z" />
    <glyph glyph-name="sterling" unicode="&#xa3;" horiz-adv-x="1024" 
d="M109 72q204 181 204 471q0 61 -14 143h-190v78h174q-1 4 -7.5 31t-8 33t-7 30t-7 32.5t-5.5 28.5t-5 31.5t-3.5 28.5t-3 31t-0.5 28q0 97 30 171.5t82 117.5t114.5 64.5t133.5 21.5q99 0 192.5 -34t143.5 -79l-41 -59l-6 -2q-136 94 -289 94q-118 0 -194 -73t-76 -224
q0 -25 2.5 -51.5t8 -57.5t9.5 -51t13 -58.5t12 -53.5h381v-78h-365q16 -75 16 -137q0 -293 -180 -457l10 -12q105 72 218 72q61 0 110.5 -21t97.5 -42t105 -21q89 0 170 57l8 -2l35 -72q-40 -34 -101 -52.5t-112 -18.5q-56 0 -109 21.5t-108 43t-117 21.5q-110 0 -260 -86z
" />
    <glyph glyph-name="currency" unicode="&#xa4;" horiz-adv-x="1269" 
d="M171.5 947q1.5 17 12.5 31.5t25.5 26t30 13t26.5 -7.5l94 -97q125 97 275 97q151 0 268 -90l88 92q17 18 49.5 -1t50.5 -52t1 -50l-93 -88q88 -118 88 -264q0 -149 -96 -276l99 -95q18 -18 3.5 -49.5t-40.5 -44.5t-47 2l-103 103q-120 -93 -268 -93q-147 0 -264 84
l-86 -90q-18 -20 -53 -4t-49.5 44.5t1.5 51.5l90 89q-92 119 -92 278q0 147 92 270l-92 91q-12 12 -10.5 29zM285 555q0 -157 97 -257.5t255 -100.5q148 0 246 101.5t98 256.5q0 161 -97.5 260.5t-248.5 99.5q-163 0 -256.5 -101t-93.5 -259z" />
    <glyph glyph-name="yen" unicode="&#xa5;" horiz-adv-x="1187" 
d="M57 1358l68 45l469 -694h4l461 694l71 -45l-493 -737v-11h268v-78h-268v-133h268v-77h-268v-322h-86v322h-268v77h268v133h-268v78h268v11z" />
    <glyph glyph-name="brokenbar" unicode="&#xa6;" 
d="M500 246h86v-717h-86v717zM500 819v717h86v-717h-86z" />
    <glyph glyph-name="section" unicode="&#xa7;" horiz-adv-x="1167" 
d="M186 627q0 156 150 276q-150 96 -150 240q0 46 23 92.5t65.5 87t114 65.5t158.5 25q193 0 350 -129l-45 -70q-132 119 -303 119q-132 0 -202.5 -59.5t-70.5 -128.5q0 -86 75 -145.5t300 -153.5q181 -75 260.5 -162t79.5 -190q0 -157 -170 -254q87 -55 123.5 -115.5
t36.5 -144.5q0 -85 -54.5 -154.5t-142 -107t-188.5 -37.5q-259 0 -393 124l43 74q131 -119 344 -119q139 0 218 66t79 164q0 48 -21 87t-67.5 73t-101 61t-142.5 63q-194 79 -281.5 159.5t-87.5 193.5zM276 631q0 -89 74 -149t244 -130q141 -62 160 -73q143 76 143 204
q0 95 -74.5 162.5t-267.5 149.5q-125 53 -160 73q-58 -42 -88.5 -104.5t-30.5 -132.5z" />
    <glyph glyph-name="dieresis" unicode="&#xa8;" horiz-adv-x="1024" 
d="M307 1044q0 29 18.5 50.5t43.5 21.5t43 -20t18 -52q0 -30 -18.5 -48.5t-42.5 -18.5q-25 0 -43.5 17.5t-18.5 49.5zM594 1044q0 29 18 50.5t43 21.5t43.5 -20.5t18.5 -51.5q0 -30 -19 -48.5t-43 -18.5q-25 0 -43 17.5t-18 49.5z" />
    <glyph glyph-name="copyright" unicode="&#xa9;" horiz-adv-x="1617" 
d="M180 662q0 127 50.5 243t135 200.5t201.5 134.5t244 50q177 0 321.5 -85t225 -228.5t80.5 -314.5q0 -173 -78 -316.5t-222.5 -229t-326.5 -85.5q-172 0 -316 79.5t-229.5 225t-85.5 326.5zM250 657q0 -161 76 -290t204 -199t283 -70q238 0 396.5 157t158.5 402
q0 125 -44 232.5t-119.5 181t-177.5 115t-216 41.5q-150 0 -278 -72t-205.5 -203.5t-77.5 -294.5zM487 641v14q0 99 34.5 176.5t94.5 126.5q1 1 8.5 7t12.5 8l10 8l33 18l25 11q38 11 61 16q10 0 14 2h13q8 2 26 2h15q3 0 8 -1t8 -1q68 -6 131 -33l12 -4l17 -8l10 -6l18 -10
q5 -5 13 -9l8 -6q1 0 2 -1t2 -1l-37 -69q-3 1 -8.5 5.5t-9.5 6.5q-4 4 -9 4l-8 6q-30 19 -65 29l-19 6q-2 2 -6 2q-41 12 -84 12h-10q-1 0 -4.5 -1t-5.5 -1q-13 0 -37 -4q-42 -11 -64 -24l-16 -11l-14 -12l-23 -18l-20 -25l-17 -27l-14 -30q-18 -45 -23 -84v-13
q-2 -10 -2 -28v-15v-12q0 -16 2 -24q2 -30 17 -76q0 -2 4 -10q5 -15 16 -37l25 -33l6 -8q8 -11 29 -27q21 -17 41 -26l10 -5q6 -4 18 -8q27 -9 62 -12h10h12h19h14q2 0 6 1t6 1q11 0 31 4l29 6q16 5 20 8l17 7q2 1 8.5 4t11.5 4l39 22l18 15l39 -62l-4 -4l-26 -18l-17 -11
q-33 -18 -61 -28l-27 -8q-50 -16 -96 -19h-15h-14h-14q-31 0 -58 6l-12 4q-18 3 -39 13q-8 2 -24 10l-11 6q-21 10 -43 29q-46 34 -77 88l-13 22q-36 73 -39 160z" />
    <glyph glyph-name="ordfeminine" unicode="&#xaa;" horiz-adv-x="737" 
d="M92 821q0 103 76 174.5t203 71.5q73 0 145 -14v82q0 104 -48 147t-116 43q-87 0 -200 -74l-39 62q135 84 258 84q92 0 155.5 -62t63.5 -184v-377q0 -44 19.5 -77.5t49.5 -49.5v-6l-51 -47q-66 47 -82 111h-6q-29 -47 -89 -78t-120 -31q-91 0 -155 61t-64 164zM172 823
q0 -74 42 -114.5t108 -40.5q64 0 116.5 35.5t77.5 95.5v190q-70 12 -145 12q-96 0 -147.5 -49.5t-51.5 -128.5z" />
    <glyph glyph-name="guillemotleft" unicode="&#xab;" horiz-adv-x="1269" 
d="M154 459v18l464 463l50 -43l-394 -424v-4l394 -434l-50 -43zM584 459v18l465 463l49 -43l-393 -424v-4l393 -434l-49 -43z" />
    <glyph glyph-name="logicalnot" unicode="&#xac;" 
d="M68 543v98h936v-535h-99v437h-837z" />
    <glyph glyph-name="uni00AD" unicode="&#xad;" horiz-adv-x="696" 
d="M102 453v77h492v-77h-492z" />
    <glyph glyph-name="registered" unicode="&#xae;" horiz-adv-x="1146" 
d="M135 985q0 182 127.5 310t308.5 128q182 0 311.5 -128.5t129.5 -309.5q0 -183 -126.5 -309.5t-314.5 -126.5q-181 0 -308.5 127.5t-127.5 308.5zM201 985q0 -156 107 -266.5t265 -110.5q160 0 266.5 110.5t106.5 266.5t-107.5 267.5t-269.5 111.5q-155 0 -261.5 -111.5
t-106.5 -267.5zM424 745v510h149q73 0 120.5 -39.5t47.5 -107.5q0 -53 -33.5 -89t-91.5 -50l158 -207v-4l-55 -19l-168 224h-68v-218h-59zM483 1016h82q51 0 84 22t33 70q0 43 -32 68.5t-81 25.5h-86v-186z" />
    <glyph glyph-name="macron" unicode="&#xaf;" horiz-adv-x="1024" 
d="M283 1051v69h458v-69h-458z" />
    <glyph glyph-name="degree" unicode="&#xb0;" horiz-adv-x="757" 
d="M106 1145q0 112 81 193t192 81q113 0 193.5 -80.5t80.5 -193.5q0 -111 -81 -192t-193 -81q-110 0 -191.5 81.5t-81.5 191.5zM197 1145q0 -81 51 -137t129 -56q79 0 134.5 56.5t55.5 136.5t-55.5 137t-134.5 57q-78 0 -129 -56.5t-51 -137.5z" />
    <glyph glyph-name="plusminus" unicode="&#xb1;" 
d="M88 111v82h909v-82h-909zM88 760v82h414v434h82v-434h413v-82h-413v-434h-82v434h-414z" />
    <glyph glyph-name="uni00B2" unicode="&#xb2;" horiz-adv-x="593" 
d="M41 889q218 181 309.5 306t91.5 224q0 64 -41.5 99.5t-111.5 35.5q-103 0 -183 -63l-26 63q30 26 87.5 50t123.5 24q102 0 166.5 -51t64.5 -156q0 -217 -348 -491l2 -6h356v-74h-481z" />
    <glyph glyph-name="uni00B3" unicode="&#xb3;" horiz-adv-x="593" 
d="M78 969q104 -58 194 -58q72 0 121 42t49 110q0 63 -40 106.5t-93 40.5l-129 -6l8 82h111q56 0 93.5 37t37.5 98q0 60 -40 96.5t-103 36.5q-82 0 -168 -53l6 80q76 47 158 47q106 0 165.5 -55.5t59.5 -147.5q0 -63 -36.5 -108.5t-90.5 -59.5v-10q64 -14 102.5 -67.5
t38.5 -114.5q0 -103 -71.5 -165t-186.5 -62q-103 0 -184 49z" />
    <glyph glyph-name="acute" unicode="&#xb4;" horiz-adv-x="1024" 
d="M440 958v7l207 325h101v-8l-254 -324h-54z" />
    <glyph glyph-name="mu" unicode="&#xb5;" 
d="M195 -322q0 22 5 259.5t5 381.5v599h82v-603q0 -143 50.5 -201.5t149.5 -58.5q91 0 179.5 49.5t132.5 120.5v693h82v-762q0 -99 53 -99q42 0 74 90l49 -16q-23 -78 -59.5 -113.5t-77.5 -35.5q-20 0 -38 6.5t-36.5 21t-31 45t-15.5 72.5h-11q-136 -147 -321 -147
q-121 0 -188 81q1 -58 4 -145t4.5 -143.5t1.5 -87.5q0 -67 -12.5 -90t-36.5 -23q-22 0 -33.5 29.5t-11.5 76.5z" />
    <glyph glyph-name="paragraph" unicode="&#xb6;" horiz-adv-x="1310" 
d="M168 961q0 130 64 229.5t171 151t238 51.5h602v-78h-135v-1637h-86v1637h-201v-1637h-86v865h-92q-98 0 -180.5 23t-150 70.5t-106 130.5t-38.5 194zM258 963q0 -173 104 -257.5t281 -84.5h92v694h-96q-175 0 -278 -100t-103 -252z" />
    <glyph glyph-name="periodcentered" unicode="&#xb7;" horiz-adv-x="552" 
d="M197 500q0 37 23 63.5t56 26.5q32 0 56 -26.5t24 -63.5q0 -38 -23.5 -64t-56.5 -26q-34 0 -56.5 26t-22.5 64z" />
    <glyph glyph-name="cedilla" unicode="&#xb8;" horiz-adv-x="1024" 
d="M399 -154l129 195h70l-102 -154q200 0 200 -127q0 -62 -66.5 -106t-174.5 -62l-19 52q189 30 189 108q0 80 -156 80q-33 0 -61 -4z" />
    <glyph glyph-name="uni00B9" unicode="&#xb9;" horiz-adv-x="593" 
d="M113 1595l229 27l18 -12v-760h-79v690l-162 -18z" />
    <glyph glyph-name="ordmasculine" unicode="&#xba;" horiz-adv-x="819" 
d="M96 989q0 176 88 292t219 116q144 0 232 -115t88 -293q0 -171 -89 -282t-224 -111q-138 0 -226 110.5t-88 282.5zM176 991q0 -139 64 -231t170 -92q105 0 169 88t64 235q0 149 -66 241.5t-174 92.5q-99 0 -163 -94.5t-64 -239.5z" />
    <glyph glyph-name="guillemotright" unicode="&#xbb;" horiz-adv-x="1269" 
d="M172 35l393 434v4l-393 424l49 43l465 -463v-18l-465 -467zM602 35l393 434v4l-393 424l49 43l465 -463v-18l-465 -467z" />
    <glyph glyph-name="onequarter" unicode="&#xbc;" horiz-adv-x="1515" 
d="M145 1391l230 26l18 -12v-760h-80v690l-161 -18zM221 -63l506 778l447 702l53 -33l-451 -696l-502 -788zM772 178l340 506h86v-479h92v-70h-92v-217h-76v217h-331zM872 211l5 -6h245v362h-10z" />
    <glyph glyph-name="onehalf" unicode="&#xbd;" horiz-adv-x="1515" 
d="M145 1391l230 26l18 -12v-760h-80v690l-161 -18zM221 -63l506 778l447 702l53 -33l-451 -696l-502 -788zM872 -43q218 181 310 306t92 224q0 64 -42 100t-112 36q-100 0 -182 -64l-27 64q30 26 87.5 49.5t123.5 23.5q103 0 167.5 -51.5t64.5 -155.5q0 -217 -348 -491
l2 -6h356v-74h-481z" />
    <glyph glyph-name="threequarters" unicode="&#xbe;" horiz-adv-x="1515" 
d="M111 764q102 -57 194 -57q72 0 121 41.5t49 109.5q0 63 -40 107t-93 41l-129 -7l8 82h111q56 0 93.5 37.5t37.5 98.5q0 60 -40.5 96.5t-103.5 36.5q-79 0 -167 -54l6 80q76 47 157 47q106 0 166 -55t60 -147q0 -63 -36.5 -108.5t-90.5 -59.5v-11q64 -14 102.5 -67.5
t38.5 -114.5q0 -103 -71.5 -165t-186.5 -62q-103 0 -184 49zM221 -63l506 778l447 702l53 -33l-451 -696l-502 -788zM772 178l340 506h86v-479h92v-70h-92v-217h-76v217h-331zM872 211l5 -6h245v362h-10z" />
    <glyph glyph-name="questiondown" unicode="&#xbf;" horiz-adv-x="921" 
d="M106 129q0 91 40 166t105 122t140.5 75t155.5 36v211h86v-278q-436 -38 -436 -328q0 -136 86 -214.5t239 -78.5q149 0 240 51h8l-8 -84q-107 -47 -236 -47q-199 0 -309.5 101.5t-110.5 267.5zM510 1098q0 38 23.5 64t56.5 26q34 0 57 -26t23 -64q0 -37 -23 -63.5
t-57 -26.5q-32 0 -56 26.5t-24 63.5z" />
    <glyph glyph-name="Agrave" unicode="&#xc0;" horiz-adv-x="1392" 
d="M90 27l596 1398h21l596 -1398l-76 -41l-205 481h-651l-205 -481zM403 545h586l-289 682h-6zM461 1745v20h100l207 -254v-16h-53z" />
    <glyph glyph-name="Aacute" unicode="&#xc1;" horiz-adv-x="1392" 
d="M90 27l596 1398h21l596 -1398l-76 -41l-205 481h-651l-205 -481zM403 545h586l-289 682h-6zM625 1495v16l206 254h101v-20l-254 -250h-53z" />
    <glyph glyph-name="Acircumflex" unicode="&#xc2;" horiz-adv-x="1392" 
d="M90 27l596 1398h21l596 -1398l-76 -41l-205 481h-651l-205 -481zM403 545h586l-289 682h-6zM459 1495v16l196 254h78l197 -254v-16h-53l-183 197l-182 -197h-53z" />
    <glyph glyph-name="Atilde" unicode="&#xc3;" horiz-adv-x="1392" 
d="M90 27l596 1398h21l596 -1398l-76 -41l-205 481h-651l-205 -481zM403 545h586l-289 682h-6zM422 1550q0 104 47 165t115 61q31 0 58 -17t47 -41.5t39 -49t40 -41.5t43 -17q43 0 69.5 46.5t26.5 115.5h62q0 -102 -47 -164t-113 -62q-29 0 -55.5 17t-46 41t-38.5 48
t-40.5 41t-42.5 17q-50 0 -78.5 -44t-28.5 -116h-57z" />
    <glyph glyph-name="Adieresis" unicode="&#xc4;" horiz-adv-x="1392" 
d="M90 27l596 1398h21l596 -1398l-76 -41l-205 481h-651l-205 -481zM403 545h586l-289 682h-6zM492 1602q0 29 18 50t43 21t43 -20t18 -51q0 -30 -19 -49t-42 -19q-25 0 -43 18t-18 50zM778 1602q0 29 18.5 50t43.5 21t43 -20t18 -51q0 -30 -18.5 -49t-42.5 -19
q-25 0 -43.5 18t-18.5 50z" />
    <glyph glyph-name="Aring" unicode="&#xc5;" horiz-adv-x="1392" 
d="M90 27l596 1398h21l596 -1398l-76 -41l-205 481h-651l-205 -481zM403 545h586l-289 682h-6zM514 1688q0 75 53.5 128.5t128.5 53.5t129 -53.5t54 -128.5t-54 -129t-129 -54t-128.5 54t-53.5 129zM580 1688q0 -58 31 -90.5t83 -32.5q50 0 83.5 34t33.5 89t-33.5 88.5
t-83.5 33.5q-51 0 -82.5 -34.5t-31.5 -87.5z" />
    <glyph glyph-name="AE" unicode="&#xc6;" horiz-adv-x="1843" 
d="M59 33l924 1360h737v-78h-645v-551h584v-78h-584v-608h666v-78h-752v467h-538l-326 -481zM502 545h487v712h-4z" />
    <glyph glyph-name="Ccedilla" unicode="&#xc7;" horiz-adv-x="1351" 
d="M129 674q0 137 36 256t99 206.5t148 150.5t185 94.5t208 31.5q245 0 432 -153l-41 -70q-75 64 -178.5 104t-216.5 39q-117 -2 -221.5 -46.5t-185 -125.5t-128 -205t-47.5 -274q0 -180 73 -321.5t207 -221.5t306 -80q228 0 416 148l39 -66q-74 -66 -194 -111.5t-245 -49.5
l-61 -93q201 0 201 -127q0 -62 -67 -106t-175 -62l-19 52q189 30 189 108q0 80 -156 80q-33 0 -61 -4l-8 18l88 136q-183 11 -325 102.5t-220 245t-78 344.5z" />
    <glyph glyph-name="Egrave" unicode="&#xc8;" horiz-adv-x="1044" 
d="M190 0v1393h732v-78h-646v-551h584v-78h-584v-608h666v-78h-752zM330 1745v20h100l207 -254v-16h-53z" />
    <glyph glyph-name="Eacute" unicode="&#xc9;" horiz-adv-x="1044" 
d="M190 0v1393h732v-78h-646v-551h584v-78h-584v-608h666v-78h-752zM494 1495v16l206 254h101v-20l-254 -250h-53z" />
    <glyph glyph-name="Ecircumflex" unicode="&#xca;" horiz-adv-x="1044" 
d="M190 0v1393h732v-78h-646v-551h584v-78h-584v-608h666v-78h-752zM328 1495v16l196 254h78l197 -254v-16h-54l-182 197l-182 -197h-53z" />
    <glyph glyph-name="Edieresis" unicode="&#xcb;" horiz-adv-x="1044" 
d="M190 0v1393h732v-78h-646v-551h584v-78h-584v-608h666v-78h-752zM360 1602q0 29 18.5 50t43.5 21t43 -20t18 -51q0 -30 -18.5 -49t-42.5 -19q-25 0 -43.5 18t-18.5 50zM647 1602q0 29 18.5 50t43.5 21t43 -20t18 -51q0 -30 -19 -49t-42 -19q-25 0 -43.5 18t-18.5 50z" />
    <glyph glyph-name="Igrave" unicode="&#xcc;" horiz-adv-x="552" 
d="M41 1745v20h100l207 -254v-16h-53zM233 0v1393h86v-1393h-86z" />
    <glyph glyph-name="Iacute" unicode="&#xcd;" horiz-adv-x="552" 
d="M205 1495v16l207 254h100v-20l-254 -250h-53zM233 0v1393h86v-1393h-86z" />
    <glyph glyph-name="Icircumflex" unicode="&#xce;" horiz-adv-x="552" 
d="M39 1495v16l197 254h77l197 -254v-16h-53l-183 197l-182 -197h-53zM233 0v1393h86v-1393h-86z" />
    <glyph glyph-name="Idieresis" unicode="&#xcf;" horiz-adv-x="552" 
d="M72 1602q0 29 18 50t43 21q26 0 44 -20t18 -51q0 -30 -19 -49t-43 -19q-25 0 -43 18t-18 50zM233 0v1393h86v-1393h-86zM358 1602q0 29 18.5 50t43.5 21t43 -20t18 -51q0 -30 -18.5 -49t-42.5 -19q-25 0 -43.5 18t-18.5 50z" />
    <glyph glyph-name="Eth" unicode="&#xd0;" horiz-adv-x="1372" 
d="M29 662v73h161v658h361q146 0 273 -50.5t219.5 -141t146 -224.5t53.5 -293q0 -207 -89 -363.5t-245 -238.5t-356 -82h-363v662h-161zM276 78h285q275 0 433.5 167.5t158.5 442.5q0 129 -35 236t-92.5 178t-135 120t-160.5 71t-171 22h-283v-580h342v-73h-342v-584z" />
    <glyph glyph-name="Ntilde" unicode="&#xd1;" horiz-adv-x="1536" 
d="M190 0v1391l50 16l1011 -1239l9 4v1221h86v-1393l-50 -14l-1011 1237l-9 -4v-1219h-86zM494 1550q0 105 46.5 165.5t114.5 60.5q37 0 71 -26t55 -57t48.5 -57t53.5 -26q43 0 69.5 46.5t26.5 115.5h61q0 -102 -46.5 -164t-112.5 -62q-29 0 -55.5 17t-46.5 41t-39 48
t-40.5 41t-42.5 17q-50 0 -78 -44t-28 -116h-57z" />
    <glyph glyph-name="Ograve" unicode="&#xd2;" horiz-adv-x="1576" 
d="M129 686q0 160 55.5 298.5t148 231t212 145t246.5 52.5q131 0 250 -51.5t209.5 -144t144 -230.5t53.5 -301q0 -143 -47.5 -272t-131.5 -225t-208.5 -152.5t-269.5 -56.5q-146 0 -270.5 55t-210 150t-133.5 225t-48 276zM219 690q0 -128 39.5 -242t111 -201t181 -137.5
t240.5 -50.5q127 0 235 51t180 137t112 201t40 242q0 280 -159.5 461.5t-407.5 181.5q-114 0 -217.5 -46t-182 -127.5t-125.5 -204t-47 -265.5zM553 1745v20h100l207 -254v-16h-53z" />
    <glyph glyph-name="Oacute" unicode="&#xd3;" horiz-adv-x="1576" 
d="M129 686q0 160 55.5 298.5t148 231t212 145t246.5 52.5q131 0 250 -51.5t209.5 -144t144 -230.5t53.5 -301q0 -143 -47.5 -272t-131.5 -225t-208.5 -152.5t-269.5 -56.5q-146 0 -270.5 55t-210 150t-133.5 225t-48 276zM219 690q0 -128 39.5 -242t111 -201t181 -137.5
t240.5 -50.5q127 0 235 51t180 137t112 201t40 242q0 280 -159.5 461.5t-407.5 181.5q-114 0 -217.5 -46t-182 -127.5t-125.5 -204t-47 -265.5zM717 1495v16l207 254h100v-20l-254 -250h-53z" />
    <glyph glyph-name="Ocircumflex" unicode="&#xd4;" horiz-adv-x="1576" 
d="M129 686q0 160 55.5 298.5t148 231t212 145t246.5 52.5q131 0 250 -51.5t209.5 -144t144 -230.5t53.5 -301q0 -143 -47.5 -272t-131.5 -225t-208.5 -152.5t-269.5 -56.5q-146 0 -270.5 55t-210 150t-133.5 225t-48 276zM219 690q0 -128 39.5 -242t111 -201t181 -137.5
t240.5 -50.5q127 0 235 51t180 137t112 201t40 242q0 280 -159.5 461.5t-407.5 181.5q-114 0 -217.5 -46t-182 -127.5t-125.5 -204t-47 -265.5zM551 1495v16l197 254h77l197 -254v-16h-53l-183 197l-182 -197h-53z" />
    <glyph glyph-name="Otilde" unicode="&#xd5;" horiz-adv-x="1576" 
d="M129 686q0 160 55.5 298.5t148 231t212 145t246.5 52.5q131 0 250 -51.5t209.5 -144t144 -230.5t53.5 -301q0 -143 -47.5 -272t-131.5 -225t-208.5 -152.5t-269.5 -56.5q-146 0 -270.5 55t-210 150t-133.5 225t-48 276zM219 690q0 -128 39.5 -242t111 -201t181 -137.5
t240.5 -50.5q127 0 235 51t180 137t112 201t40 242q0 280 -159.5 461.5t-407.5 181.5q-114 0 -217.5 -46t-182 -127.5t-125.5 -204t-47 -265.5zM514 1550q0 104 47 165t115 61q31 0 58 -17t47 -41.5t39 -49t40 -41.5t43 -17q43 0 69.5 46.5t26.5 115.5h62q0 -102 -47 -164
t-113 -62q-29 0 -55.5 17t-46 41t-38.5 48t-40.5 41t-42.5 17q-50 0 -78.5 -44t-28.5 -116h-57z" />
    <glyph glyph-name="Odieresis" unicode="&#xd6;" horiz-adv-x="1576" 
d="M129 686q0 160 55.5 298.5t148 231t212 145t246.5 52.5q131 0 250 -51.5t209.5 -144t144 -230.5t53.5 -301q0 -143 -47.5 -272t-131.5 -225t-208.5 -152.5t-269.5 -56.5q-146 0 -270.5 55t-210 150t-133.5 225t-48 276zM219 690q0 -128 39.5 -242t111 -201t181 -137.5
t240.5 -50.5q127 0 235 51t180 137t112 201t40 242q0 280 -159.5 461.5t-407.5 181.5q-114 0 -217.5 -46t-182 -127.5t-125.5 -204t-47 -265.5zM584 1602q0 29 18 50t43 21q26 0 44 -20t18 -51q0 -30 -19 -49t-43 -19q-25 0 -43 18t-18 50zM870 1602q0 29 18.5 50t43.5 21
t43 -20t18 -51q0 -30 -18.5 -49t-42.5 -19q-25 0 -43.5 18t-18.5 50z" />
    <glyph glyph-name="multiply" unicode="&#xd7;" 
d="M158 279l327 327l-327 328l57 57l328 -327l327 327l58 -57l-328 -328l328 -327l-58 -58l-327 328l-328 -328z" />
    <glyph glyph-name="Oslash" unicode="&#xd8;" horiz-adv-x="1576" 
d="M129 686q0 160 55.5 298.5t148 231t212 145t246.5 52.5q234 0 411 -151l160 204l55 -41l-166 -211q93 -96 145 -231t52 -297q0 -143 -47.5 -272t-131.5 -225t-208.5 -152.5t-269.5 -56.5q-235 0 -406 135l-168 -215l-55 41l172 219q-98 98 -151.5 233.5t-53.5 292.5z
M219 690q0 -136 43.5 -256t124.5 -207l764 971q-148 135 -360 135q-114 0 -217.5 -46t-182 -127.5t-125.5 -204t-47 -265.5zM436 180q146 -121 355 -121q127 0 235 51t180 137t112 201t40 242q0 136 -41.5 254.5t-116.5 204.5z" />
    <glyph glyph-name="Ugrave" unicode="&#xd9;" horiz-adv-x="1413" 
d="M190 506v887h86v-873q0 -238 114.5 -350.5t316.5 -112.5q199 0 314.5 112t115.5 351v873h86v-887q0 -87 -19 -164.5t-60 -144t-101 -114.5t-146 -75.5t-190 -27.5q-142 0 -245 42t-161 117t-84.5 165.5t-26.5 201.5zM471 1745v20h100l207 -254v-16h-53z" />
    <glyph glyph-name="Uacute" unicode="&#xda;" horiz-adv-x="1413" 
d="M190 506v887h86v-873q0 -238 114.5 -350.5t316.5 -112.5q199 0 314.5 112t115.5 351v873h86v-887q0 -87 -19 -164.5t-60 -144t-101 -114.5t-146 -75.5t-190 -27.5q-142 0 -245 42t-161 117t-84.5 165.5t-26.5 201.5zM635 1495v16l207 254h100v-20l-254 -250h-53z" />
    <glyph glyph-name="Ucircumflex" unicode="&#xdb;" horiz-adv-x="1413" 
d="M190 506v887h86v-873q0 -238 114.5 -350.5t316.5 -112.5q199 0 314.5 112t115.5 351v873h86v-887q0 -87 -19 -164.5t-60 -144t-101 -114.5t-146 -75.5t-190 -27.5q-142 0 -245 42t-161 117t-84.5 165.5t-26.5 201.5zM469 1495v16l197 254h77l197 -254v-16h-53l-182 197
l-183 -197h-53z" />
    <glyph glyph-name="Udieresis" unicode="&#xdc;" horiz-adv-x="1413" 
d="M190 506v887h86v-873q0 -238 114.5 -350.5t316.5 -112.5q199 0 314.5 112t115.5 351v873h86v-887q0 -87 -19 -164.5t-60 -144t-101 -114.5t-146 -75.5t-190 -27.5q-142 0 -245 42t-161 117t-84.5 165.5t-26.5 201.5zM502 1602q0 29 18 50t43 21q26 0 44 -20t18 -51
q0 -30 -19 -49t-43 -19q-25 0 -43 18t-18 50zM788 1602q0 29 18.5 50t43.5 21t43 -20t18 -51q0 -30 -18.5 -49t-42.5 -19q-25 0 -43.5 18t-18.5 50z" />
    <glyph glyph-name="Yacute" unicode="&#xdd;" horiz-adv-x="1208" 
d="M68 1358l67 45l469 -694h4l461 694l72 -45l-494 -737v-621h-86v621zM532 1495v16l207 254h101v-20l-254 -250h-54z" />
    <glyph glyph-name="Thorn" unicode="&#xde;" horiz-adv-x="1064" 
d="M190 0v1393h86v-287h248q193 0 312.5 -106t119.5 -285q0 -93 -35.5 -167.5t-96.5 -122t-139.5 -72.5t-168.5 -25h-240v-328h-86zM276 406h240q67 0 127 17t111 52t81.5 95.5t30.5 140.5q0 144 -95 230.5t-245 86.5h-250v-622z" />
    <glyph glyph-name="germandbls" unicode="&#xdf;" horiz-adv-x="1126" 
d="M76 844l24 74h146v88q0 178 99 289.5t271 111.5q87 0 159.5 -32t126.5 -99t73.5 -170t-0.5 -244q-164 17 -250 -25.5t-86 -127.5q0 -57 42 -100.5t165 -121.5q104 -67 149 -129t45 -141q0 -111 -81 -174t-187 -63q-80 0 -147 21.5t-107 55.5l37 74q53 -37 101.5 -56.5
t111.5 -19.5q87 0 136.5 43t49.5 119q0 61 -41.5 110.5t-134.5 110.5q-62 41 -96.5 66.5t-68 58.5t-47 66t-13.5 73q0 109 89.5 174t260.5 62q15 177 -62 285t-223 108q-76 0 -133.5 -26t-91 -71.5t-49.5 -100.5t-16 -119v-1014h-82v844h-170z" />
    <glyph glyph-name="agrave" unicode="&#xe0;" horiz-adv-x="921" 
d="M109 236q0 56 20 105t62 91.5t115.5 67t170.5 24.5q87 0 189 -20v112q0 66 -19.5 115.5t-51.5 77t-67 40.5t-73 13q-132 0 -265 -88l-32 68q143 96 307 96q53 0 102 -17.5t90.5 -52.5t66 -94.5t24.5 -136.5v-449q0 -54 21 -96t54 -61v-4l-59 -50q-79 62 -90 152h-6
q-97 -149 -279 -149q-122 0 -201 72t-79 184zM195 236q0 -82 56 -131.5t144 -49.5q95 0 167 53.5t104 147.5v174q-99 23 -191 23q-136 0 -208 -57t-72 -160zM215 1384v9h100l207 -326v-6h-53z" />
    <glyph glyph-name="aacute" unicode="&#xe1;" horiz-adv-x="921" 
d="M109 236q0 56 20 105t62 91.5t115.5 67t170.5 24.5q87 0 189 -20v112q0 66 -19.5 115.5t-51.5 77t-67 40.5t-73 13q-132 0 -265 -88l-32 68q143 96 307 96q53 0 102 -17.5t90.5 -52.5t66 -94.5t24.5 -136.5v-449q0 -54 21 -96t54 -61v-4l-59 -50q-79 62 -90 152h-6
q-97 -149 -279 -149q-122 0 -201 72t-79 184zM195 236q0 -82 56 -131.5t144 -49.5q95 0 167 53.5t104 147.5v174q-99 23 -191 23q-136 0 -208 -57t-72 -160zM379 1061v6l207 326h100v-9l-254 -323h-53z" />
    <glyph glyph-name="acircumflex" unicode="&#xe2;" horiz-adv-x="921" 
d="M109 236q0 56 20 105t62 91.5t115.5 67t170.5 24.5q87 0 189 -20v112q0 66 -19.5 115.5t-51.5 77t-67 40.5t-73 13q-132 0 -265 -88l-32 68q143 96 307 96q53 0 102 -17.5t90.5 -52.5t66 -94.5t24.5 -136.5v-449q0 -54 21 -96t54 -61v-4l-59 -50q-79 62 -90 152h-6
q-97 -149 -279 -149q-122 0 -201 72t-79 184zM195 236q0 -82 56 -131.5t144 -49.5q95 0 167 53.5t104 147.5v174q-99 23 -191 23q-136 0 -208 -57t-72 -160zM213 1061v12l197 320h77l197 -320v-12h-53l-182 258l-183 -258h-53z" />
    <glyph glyph-name="atilde" unicode="&#xe3;" horiz-adv-x="921" 
d="M109 236q0 56 20 105t62 91.5t115.5 67t170.5 24.5q87 0 189 -20v112q0 66 -19.5 115.5t-51.5 77t-67 40.5t-73 13q-132 0 -265 -88l-32 68q143 96 307 96q53 0 102 -17.5t90.5 -52.5t66 -94.5t24.5 -136.5v-449q0 -54 21 -96t54 -61v-4l-59 -50q-79 62 -90 152h-6
q-97 -149 -279 -149q-122 0 -201 72t-79 184zM176 1096q0 104 47 164.5t115 60.5q31 0 58 -17t47 -41.5t39 -49t40 -41.5t43 -17q43 0 70 46.5t27 115.5h61q0 -102 -47 -163.5t-113 -61.5q-35 0 -67.5 25.5t-53.5 56t-48.5 56t-53.5 25.5q-50 0 -78.5 -43.5t-28.5 -115.5
h-57zM195 236q0 -82 56 -131.5t144 -49.5q95 0 167 53.5t104 147.5v174q-99 23 -191 23q-136 0 -208 -57t-72 -160z" />
    <glyph glyph-name="adieresis" unicode="&#xe4;" horiz-adv-x="921" 
d="M109 236q0 56 20 105t62 91.5t115.5 67t170.5 24.5q87 0 189 -20v112q0 66 -19.5 115.5t-51.5 77t-67 40.5t-73 13q-132 0 -265 -88l-32 68q143 96 307 96q53 0 102 -17.5t90.5 -52.5t66 -94.5t24.5 -136.5v-449q0 -54 21 -96t54 -61v-4l-59 -50q-79 62 -90 152h-6
q-97 -149 -279 -149q-122 0 -201 72t-79 184zM195 236q0 -82 56 -131.5t144 -49.5q95 0 167 53.5t104 147.5v174q-99 23 -191 23q-136 0 -208 -57t-72 -160zM246 1147q0 29 18 50.5t43 21.5t43.5 -20.5t18.5 -51.5q0 -30 -19 -49t-43 -19q-25 0 -43 18t-18 50zM532 1147
q0 29 18.5 50.5t43.5 21.5t43 -20t18 -52q0 -31 -18.5 -49.5t-42.5 -18.5q-25 0 -43.5 18t-18.5 50z" />
    <glyph glyph-name="aring" unicode="&#xe5;" horiz-adv-x="921" 
d="M109 236q0 56 20 105t62 91.5t115.5 67t170.5 24.5q87 0 189 -20v112q0 66 -19.5 115.5t-51.5 77t-67 40.5t-73 13q-132 0 -265 -88l-32 68q143 96 307 96q53 0 102 -17.5t90.5 -52.5t66 -94.5t24.5 -136.5v-449q0 -54 21 -96t54 -61v-4l-59 -50q-79 62 -90 152h-6
q-97 -149 -279 -149q-122 0 -201 72t-79 184zM195 236q0 -82 56 -131.5t144 -49.5q95 0 167 53.5t104 147.5v174q-99 23 -191 23q-136 0 -208 -57t-72 -160zM268 1233q0 75 54 128.5t129 53.5t128.5 -53.5t53.5 -128.5t-53.5 -128.5t-128.5 -53.5t-129 53.5t-54 128.5z
M334 1233q0 -58 31.5 -90.5t83.5 -32.5q50 0 83 34t33 89t-33 89t-83 34q-51 0 -83 -35t-32 -88z" />
    <glyph glyph-name="ae" unicode="&#xe6;" horiz-adv-x="1433" 
d="M109 236q0 56 19 105t59 91.5t111 67t165 24.5q76 0 178 -20v112q0 66 -18 115.5t-48 77t-64 40.5t-71 13q-123 0 -250 -88l-32 68q139 96 293 96q94 0 163 -53t91 -160q46 97 128 155t173 58q138 0 225.5 -104t87.5 -256q0 -88 -21 -140h-573q1 -99 24.5 -174.5
t64.5 -120t91.5 -66.5t110.5 -22q63 0 124.5 24t102.5 66h6l29 -63q-46 -44 -122 -73t-157 -29q-97 0 -182 53.5t-133 156.5q-56 -116 -133 -163t-176 -47q-117 0 -191.5 71.5t-74.5 184.5zM195 236q0 -82 51.5 -131.5t134.5 -49.5q94 0 160.5 53t99.5 148v174
q-8 2 -30.5 6.5t-34.5 6.5t-32 5t-40.5 4t-42.5 1q-131 0 -198.5 -57t-67.5 -160zM727 508h500q25 156 -44 255t-182 99q-109 0 -186 -101.5t-88 -252.5z" />
    <glyph glyph-name="ccedilla" unicode="&#xe7;" horiz-adv-x="819" 
d="M113 430q0 107 33 202.5t87.5 162t127.5 105t151 38.5q81 0 136.5 -25t111.5 -77l-41 -64q-93 90 -207 90q-134 0 -223.5 -122.5t-89.5 -305.5q0 -178 84.5 -278.5t216.5 -100.5q114 0 213 88l39 -61q-41 -41 -105.5 -69.5t-130.5 -32.5l-61 -93q200 0 200 -127
q0 -62 -66.5 -106t-174.5 -62l-19 52q189 30 189 108q0 80 -156 80q-33 0 -61 -4l-9 18l91 136q-161 18 -248.5 141.5t-87.5 306.5z" />
    <glyph glyph-name="egrave" unicode="&#xe8;" horiz-adv-x="921" 
d="M113 434q0 219 109 361.5t272 142.5q138 0 225.5 -104t87.5 -256q0 -88 -21 -140h-587q1 -100 25 -175t66.5 -119.5t96 -66.5t117.5 -22q63 0 124.5 24t102.5 66h6l29 -63q-46 -44 -122 -73t-157 -29q-73 0 -139 28t-119 82t-84.5 143t-31.5 201zM201 508h514
q25 156 -44 255t-182 99q-118 0 -197.5 -101t-90.5 -253zM248 1384v9h100l207 -326v-6h-53z" />
    <glyph glyph-name="eacute" unicode="&#xe9;" horiz-adv-x="921" 
d="M113 434q0 219 109 361.5t272 142.5q138 0 225.5 -104t87.5 -256q0 -88 -21 -140h-587q1 -100 25 -175t66.5 -119.5t96 -66.5t117.5 -22q63 0 124.5 24t102.5 66h6l29 -63q-46 -44 -122 -73t-157 -29q-73 0 -139 28t-119 82t-84.5 143t-31.5 201zM201 508h514
q25 156 -44 255t-182 99q-118 0 -197.5 -101t-90.5 -253zM412 1061v6l206 326h101v-9l-254 -323h-53z" />
    <glyph glyph-name="ecircumflex" unicode="&#xea;" horiz-adv-x="921" 
d="M113 434q0 219 109 361.5t272 142.5q138 0 225.5 -104t87.5 -256q0 -88 -21 -140h-587q1 -100 25 -175t66.5 -119.5t96 -66.5t117.5 -22q63 0 124.5 24t102.5 66h6l29 -63q-46 -44 -122 -73t-157 -29q-73 0 -139 28t-119 82t-84.5 143t-31.5 201zM201 508h514
q25 156 -44 255t-182 99q-118 0 -197.5 -101t-90.5 -253zM246 1061v12l196 320h78l197 -320v-12h-53l-183 258l-182 -258h-53z" />
    <glyph glyph-name="edieresis" unicode="&#xeb;" horiz-adv-x="921" 
d="M113 434q0 219 109 361.5t272 142.5q138 0 225.5 -104t87.5 -256q0 -88 -21 -140h-587q1 -100 25 -175t66.5 -119.5t96 -66.5t117.5 -22q63 0 124.5 24t102.5 66h6l29 -63q-46 -44 -122 -73t-157 -29q-73 0 -139 28t-119 82t-84.5 143t-31.5 201zM201 508h514
q25 156 -44 255t-182 99q-118 0 -197.5 -101t-90.5 -253zM279 1147q0 29 18 50.5t43 21.5t43 -20t18 -52q0 -31 -18.5 -49.5t-42.5 -18.5q-25 0 -43 18t-18 50zM565 1147q0 29 18.5 50.5t43.5 21.5t43 -20t18 -52q0 -31 -19 -49.5t-42 -18.5q-25 0 -43.5 18t-18.5 50z" />
    <glyph glyph-name="igrave" unicode="&#xec;" horiz-adv-x="471" 
d="M0 1384v9h100l207 -326v-6h-53zM195 0v913l81 11v-924h-81z" />
    <glyph glyph-name="iacute" unicode="&#xed;" horiz-adv-x="471" 
d="M164 1061v6l207 326h100v-9l-254 -323h-53zM195 0v913l81 11v-924h-81z" />
    <glyph glyph-name="icircumflex" unicode="&#xee;" horiz-adv-x="471" 
d="M-2 1061v12l197 320h77l197 -320v-12h-53l-183 258l-182 -258h-53zM195 0v913l81 11v-924h-81z" />
    <glyph glyph-name="idieresis" unicode="&#xef;" horiz-adv-x="471" 
d="M31 1147q0 29 18 50.5t43 21.5t43.5 -20.5t18.5 -51.5q0 -30 -19 -49t-43 -19q-25 0 -43 18t-18 50zM195 0v913l81 11v-924h-81zM317 1147q0 29 18.5 50.5t43.5 21.5t43 -20t18 -52q0 -31 -19 -49.5t-42 -18.5q-25 0 -43.5 18t-18.5 50z" />
    <glyph glyph-name="eth" unicode="&#xf0;" horiz-adv-x="1003" 
d="M113 451q0 210 109 348.5t272 138.5q79 0 150 -33.5t118 -101.5l8 4q-73 225 -238 371h-2l-190 -129l-33 49l176 119q-104 77 -239 126l30 70q156 -61 273 -153l215 147l33 -49l-201 -137q151 -138 224 -327t73 -407q0 -121 -30.5 -218.5t-84 -160t-123.5 -95.5t-151 -33
q-164 0 -276.5 133.5t-112.5 337.5zM199 453q0 -171 83.5 -284.5t219.5 -113.5q132 0 217.5 110t85.5 288q0 182 -85 295.5t-226 113.5q-131 0 -213 -116t-82 -293z" />
    <glyph glyph-name="ntilde" unicode="&#xf1;" horiz-adv-x="983" 
d="M154 0v918h67l15 -132h6q64 69 149 110.5t174 41.5q117 0 190.5 -74.5t73.5 -222.5v-641h-81v625q0 121 -54 179t-147 58q-85 0 -167.5 -46.5t-143.5 -125.5v-690h-82zM219 1096q0 104 47 164.5t115 60.5q31 0 58 -17t47 -41.5t39 -49t40 -41.5t43 -17q43 0 70 46.5
t27 115.5h61q0 -102 -47 -163.5t-113 -61.5q-35 0 -67.5 25.5t-53.5 56t-48.5 56t-53.5 25.5q-50 0 -78.5 -43.5t-28.5 -115.5h-57z" />
    <glyph glyph-name="ograve" unicode="&#xf2;" horiz-adv-x="1003" 
d="M113 451q0 211 107 349t274 138q181 0 289 -137t108 -350q0 -203 -113.5 -337t-275.5 -134q-164 0 -276.5 133.5t-112.5 337.5zM199 451q0 -171 85 -283.5t218 -112.5q130 0 216.5 113t86.5 283q0 178 -85.5 294.5t-225.5 116.5q-130 0 -212.5 -117t-82.5 -294zM266 1384
v9h101l206 -326v-6h-53z" />
    <glyph glyph-name="oacute" unicode="&#xf3;" horiz-adv-x="1003" 
d="M113 451q0 211 107 349t274 138q181 0 289 -137t108 -350q0 -203 -113.5 -337t-275.5 -134q-164 0 -276.5 133.5t-112.5 337.5zM199 451q0 -171 85 -283.5t218 -112.5q130 0 216.5 113t86.5 283q0 178 -85.5 294.5t-225.5 116.5q-130 0 -212.5 -117t-82.5 -294zM430 1061
v6l207 326h100v-9l-254 -323h-53z" />
    <glyph glyph-name="ocircumflex" unicode="&#xf4;" horiz-adv-x="1003" 
d="M113 451q0 211 107 349t274 138q181 0 289 -137t108 -350q0 -203 -113.5 -337t-275.5 -134q-164 0 -276.5 133.5t-112.5 337.5zM199 451q0 -171 85 -283.5t218 -112.5q130 0 216.5 113t86.5 283q0 178 -85.5 294.5t-225.5 116.5q-130 0 -212.5 -117t-82.5 -294zM264 1061
v12l197 320h78l196 -320v-12h-53l-182 258l-183 -258h-53z" />
    <glyph glyph-name="otilde" unicode="&#xf5;" horiz-adv-x="1003" 
d="M113 451q0 211 107 349t274 138q181 0 289 -137t108 -350q0 -203 -113.5 -337t-275.5 -134q-164 0 -276.5 133.5t-112.5 337.5zM199 451q0 -171 85 -283.5t218 -112.5q130 0 216.5 113t86.5 283q0 178 -85.5 294.5t-225.5 116.5q-130 0 -212.5 -117t-82.5 -294zM227 1096
q0 104 47 164.5t115 60.5q31 0 58 -17t47 -41.5t39 -49t40 -41.5t43 -17q43 0 70 46.5t27 115.5h61q0 -102 -47 -163.5t-113 -61.5q-35 0 -67.5 25.5t-53.5 56t-48.5 56t-53.5 25.5q-50 0 -78 -43.5t-28 -115.5h-58z" />
    <glyph glyph-name="odieresis" unicode="&#xf6;" horiz-adv-x="1003" 
d="M113 451q0 211 107 349t274 138q181 0 289 -137t108 -350q0 -203 -113.5 -337t-275.5 -134q-164 0 -276.5 133.5t-112.5 337.5zM199 451q0 -171 85 -283.5t218 -112.5q130 0 216.5 113t86.5 283q0 178 -85.5 294.5t-225.5 116.5q-130 0 -212.5 -117t-82.5 -294zM297 1147
q0 29 18 50.5t43 21.5t43.5 -20.5t18.5 -51.5q0 -30 -19 -49t-43 -19q-25 0 -43 18t-18 50zM584 1147q0 29 18 50.5t43 21.5t43.5 -20.5t18.5 -51.5q0 -30 -19 -49t-43 -19q-25 0 -43 18t-18 50z" />
    <glyph glyph-name="divide" unicode="&#xf7;" 
d="M88 575v82h909v-82h-909zM455 281q0 37 25.5 62.5t62.5 25.5t62.5 -25.5t25.5 -62.5t-25.5 -62.5t-62.5 -25.5t-62.5 25.5t-25.5 62.5zM455 952q0 37 25.5 62.5t62.5 25.5t62.5 -25.5t25.5 -62.5t-25.5 -62.5t-62.5 -25.5t-62.5 25.5t-25.5 62.5z" />
    <glyph glyph-name="oslash" unicode="&#xf8;" horiz-adv-x="1003" 
d="M96 -43l121 164q-104 132 -104 330q0 211 107 349t274 138q145 0 251 -98l105 143l51 -39l-113 -151q103 -137 103 -342q0 -203 -113.5 -337t-275.5 -134q-138 0 -240 94l-115 -156zM199 451q0 -155 67 -261l430 582q-84 90 -202 90q-130 0 -212.5 -117t-82.5 -294z
M309 137q82 -82 193 -82q130 0 216.5 113t86.5 283q0 156 -70 268z" />
    <glyph glyph-name="ugrave" unicode="&#xf9;" horiz-adv-x="983" 
d="M154 287v631h82v-613q0 -139 54 -194.5t148 -55.5q85 0 171 48t139 124v691h81v-918h-67l-14 129h-7q-65 -69 -148.5 -109t-172.5 -40q-50 0 -95.5 16.5t-84.5 51t-62.5 96t-23.5 143.5zM256 1384v9h100l207 -326v-6h-53z" />
    <glyph glyph-name="uacute" unicode="&#xfa;" horiz-adv-x="983" 
d="M154 287v631h82v-613q0 -139 54 -194.5t148 -55.5q85 0 171 48t139 124v691h81v-918h-67l-14 129h-7q-65 -69 -148.5 -109t-172.5 -40q-50 0 -95.5 16.5t-84.5 51t-62.5 96t-23.5 143.5zM420 1061v6l207 326h100v-9l-254 -323h-53z" />
    <glyph glyph-name="ucircumflex" unicode="&#xfb;" horiz-adv-x="983" 
d="M154 287v631h82v-613q0 -139 54 -194.5t148 -55.5q85 0 171 48t139 124v691h81v-918h-67l-14 129h-7q-65 -69 -148.5 -109t-172.5 -40q-50 0 -95.5 16.5t-84.5 51t-62.5 96t-23.5 143.5zM254 1061v12l197 320h77l197 -320v-12h-53l-183 258l-182 -258h-53z" />
    <glyph glyph-name="udieresis" unicode="&#xfc;" horiz-adv-x="983" 
d="M154 287v631h82v-613q0 -139 54 -194.5t148 -55.5q85 0 171 48t139 124v691h81v-918h-67l-14 129h-7q-65 -69 -148.5 -109t-172.5 -40q-50 0 -95.5 16.5t-84.5 51t-62.5 96t-23.5 143.5zM287 1147q0 29 18 50.5t43 21.5t43.5 -20.5t18.5 -51.5q0 -30 -19 -49t-43 -19
q-25 0 -43 18t-18 50zM573 1147q0 29 18.5 50.5t43.5 21.5t43 -20t18 -52q0 -31 -19 -49.5t-42 -18.5q-25 0 -43.5 18t-18.5 50z" />
    <glyph glyph-name="yacute" unicode="&#xfd;" horiz-adv-x="901" 
d="M72 905l80 25l286 -772h6l306 772l79 -25l-436 -1073q-26 -69 -68 -132t-85 -93l-105 -31l-12 55q90 34 154 137.5t120 282.5zM379 1061v6l207 326h100v-9l-254 -323h-53z" />
    <glyph glyph-name="thorn" unicode="&#xfe;" horiz-adv-x="1003" 
d="M154 -412v1805l82 24v-600h4q112 121 282 121q52 0 103 -18.5t99.5 -57.5t85 -94.5t59 -136t22.5 -174.5q0 -116 -31.5 -208.5t-85 -150t-120 -88t-140.5 -30.5q-83 0 -160 38.5t-114 96.5h-4v-502zM236 223q36 -75 107.5 -121.5t160.5 -46.5q56 0 106.5 21t95.5 65
t72 124.5t27 187.5q0 90 -19.5 162.5t-50.5 117.5t-71.5 75t-79.5 42t-78 12q-87 0 -157.5 -38.5t-112.5 -104.5v-496z" />
    <glyph glyph-name="ydieresis" unicode="&#xff;" horiz-adv-x="901" 
d="M72 905l80 25l286 -772h6l306 772l79 -25l-436 -1073q-26 -69 -68 -132t-85 -93l-105 -31l-12 55q90 34 154 137.5t120 282.5zM246 1147q0 29 18 50.5t43 21.5t43.5 -20.5t18.5 -51.5q0 -30 -19 -49t-43 -19q-25 0 -43 18t-18 50zM532 1147q0 29 18.5 50.5t43.5 21.5
t43 -20t18 -52q0 -31 -18.5 -49.5t-42.5 -18.5q-25 0 -43.5 18t-18.5 50z" />
    <glyph glyph-name="OE" unicode="&#x152;" horiz-adv-x="1884" 
d="M129 686q0 160 57 298.5t152 231t218 145t255 52.5q120 0 223 -20h727v-78h-645v-551h584v-78h-584v-608h666v-78h-752q-97 -20 -219 -20q-200 0 -357 94.5t-241 255t-84 356.5zM219 690q0 -172 69 -314t205.5 -229.5t317.5 -87.5q120 0 219 27v1223q-93 24 -219 24
q-118 0 -225.5 -46t-189 -127.5t-129.5 -204t-48 -265.5z" />
    <glyph glyph-name="oe" unicode="&#x153;" horiz-adv-x="1576" 
d="M113 451q0 211 107 349t274 138q119 0 206 -68t131 -188q44 119 129 187.5t189 68.5q138 0 225.5 -104t87.5 -256q0 -90 -20 -140h-568q1 -194 80.5 -288.5t204.5 -94.5q63 0 124.5 24t102.5 66h7l28 -63q-46 -44 -121.5 -73t-156.5 -29q-102 0 -189 60t-131 175
q-47 -109 -133 -172t-188 -63q-164 0 -276.5 133.5t-112.5 337.5zM199 451q0 -171 85 -283.5t218 -112.5q121 0 201.5 113t80.5 283q0 178 -79.5 294.5t-210.5 116.5q-130 0 -212.5 -117t-82.5 -294zM877 508h493q25 156 -43.5 255t-181.5 99q-108 0 -182.5 -101t-85.5 -253
z" />
    <glyph glyph-name="Ydieresis" unicode="&#x178;" horiz-adv-x="1208" 
d="M68 1358l67 45l469 -694h4l461 694l72 -45l-494 -737v-621h-86v621zM399 1602q0 29 18.5 50t43.5 21t43 -20t18 -51q0 -30 -19 -49t-42 -19q-25 0 -43.5 18t-18.5 50zM686 1602q0 29 18.5 50t43.5 21t43 -20t18 -51q0 -30 -18.5 -49t-42.5 -19q-25 0 -43.5 18t-18.5 50z
" />
    <glyph glyph-name="circumflex" unicode="&#x2c6;" horiz-adv-x="1024" 
d="M274 958v13l197 319h78l196 -319v-13h-53l-182 259l-182 -259h-54z" />
    <glyph glyph-name="tilde" unicode="&#x2dc;" horiz-adv-x="1024" 
d="M238 993q0 105 46.5 165.5t114.5 60.5q37 0 71 -26t55 -57t48.5 -57t53.5 -26q43 0 69.5 46t26.5 115h61q0 -102 -46.5 -163.5t-112.5 -61.5q-29 0 -55.5 17t-46.5 41t-39 48t-40.5 41t-42.5 17q-50 0 -78 -44t-28 -116h-57z" />
    <glyph glyph-name="uni2000" unicode="&#x2000;" horiz-adv-x="935" 
 />
    <glyph glyph-name="uni2001" unicode="&#x2001;" horiz-adv-x="1870" 
 />
    <glyph glyph-name="uni2002" unicode="&#x2002;" horiz-adv-x="935" 
 />
    <glyph glyph-name="uni2003" unicode="&#x2003;" horiz-adv-x="1870" 
 />
    <glyph glyph-name="uni2004" unicode="&#x2004;" horiz-adv-x="623" 
 />
    <glyph glyph-name="uni2005" unicode="&#x2005;" horiz-adv-x="467" 
 />
    <glyph glyph-name="uni2006" unicode="&#x2006;" horiz-adv-x="311" 
 />
    <glyph glyph-name="uni2007" unicode="&#x2007;" horiz-adv-x="311" 
 />
    <glyph glyph-name="uni2008" unicode="&#x2008;" horiz-adv-x="233" 
 />
    <glyph glyph-name="uni2009" unicode="&#x2009;" horiz-adv-x="374" 
 />
    <glyph glyph-name="uni200A" unicode="&#x200a;" horiz-adv-x="103" 
 />
    <glyph glyph-name="uni2010" unicode="&#x2010;" horiz-adv-x="696" 
d="M102 453v77h492v-77h-492z" />
    <glyph glyph-name="uni2011" unicode="&#x2011;" horiz-adv-x="696" 
d="M102 453v77h492v-77h-492z" />
    <glyph glyph-name="figuredash" unicode="&#x2012;" horiz-adv-x="696" 
d="M102 453v77h492v-77h-492z" />
    <glyph glyph-name="endash" unicode="&#x2013;" horiz-adv-x="983" 
d="M102 453v77h779v-77h-779z" />
    <glyph glyph-name="emdash" unicode="&#x2014;" horiz-adv-x="2048" 
d="M188 453v77h1672v-77h-1672z" />
    <glyph glyph-name="quoteleft" unicode="&#x2018;" horiz-adv-x="573" 
d="M147 889v12q99 267 248 492h60v-4q-151 -305 -211 -500h-97z" />
    <glyph glyph-name="quoteright" unicode="&#x2019;" horiz-adv-x="573" 
d="M119 889v4q151 305 211 500h96v-13q-98 -265 -248 -491h-59z" />
    <glyph glyph-name="quotesinglbase" unicode="&#x201a;" horiz-adv-x="573" 
d="M119 -264q151 305 211 500h96v-13q-98 -265 -248 -491h-59v4z" />
    <glyph glyph-name="quotedblleft" unicode="&#x201c;" horiz-adv-x="962" 
d="M147 889v12q99 267 248 492h60v-4q-151 -305 -211 -500h-97zM537 889v12q100 270 247 492h60v-4q-151 -305 -211 -500h-96z" />
    <glyph glyph-name="quotedblright" unicode="&#x201d;" horiz-adv-x="962" 
d="M119 889v4q151 305 211 500h96v-13q-98 -265 -248 -491h-59zM508 889v4q151 305 211 500h96v-13q-98 -265 -248 -491h-59z" />
    <glyph glyph-name="quotedblbase" unicode="&#x201e;" horiz-adv-x="962" 
d="M119 -264q151 305 211 500h96v-13q-98 -265 -248 -491h-59v4zM508 -264q151 305 211 500h96v-13q-98 -265 -248 -491h-59v4z" />
    <glyph glyph-name="bullet" unicode="&#x2022;" horiz-adv-x="983" 
d="M268 541q0 92 66 157.5t158 65.5t157.5 -65.5t65.5 -157.5t-65.5 -158t-157.5 -66t-158 66t-66 158z" />
    <glyph glyph-name="ellipsis" unicode="&#x2026;" horiz-adv-x="1863" 
d="M197 76q0 37 23 63.5t56 26.5q32 0 56 -26.5t24 -63.5q0 -38 -23.5 -64t-56.5 -26q-34 0 -56.5 26t-22.5 64zM852 76q0 37 23 63.5t57 26.5q32 0 56 -26.5t24 -63.5q0 -38 -23.5 -64t-56.5 -26q-34 0 -57 26t-23 64zM1507 76q0 37 23 63.5t57 26.5q32 0 56 -26.5
t24 -63.5q0 -38 -23.5 -64t-56.5 -26q-34 0 -57 26t-23 64z" />
    <glyph glyph-name="uni202F" unicode="&#x202f;" horiz-adv-x="374" 
 />
    <glyph glyph-name="guilsinglleft" unicode="&#x2039;" horiz-adv-x="839" 
d="M154 459v18l464 463l50 -43l-394 -424v-4l394 -434l-50 -43z" />
    <glyph glyph-name="guilsinglright" unicode="&#x203a;" horiz-adv-x="839" 
d="M172 35l393 434v4l-393 424l49 43l465 -463v-18l-465 -467z" />
    <glyph glyph-name="uni205F" unicode="&#x205f;" horiz-adv-x="467" 
 />
    <glyph glyph-name="Euro" unicode="&#x20ac;" horiz-adv-x="1249" 
d="M84 547l20 78h109q-2 16 -2 49q0 55 2 84h-129l20 78h119q22 141 85 254t149.5 182t186 105t202.5 36q176 0 301 -70l-25 -75q-39 20 -70 32t-87.5 23t-120.5 10q-88 -1 -172 -32.5t-157.5 -91.5t-127 -156.5t-74.5 -216.5h701l-21 -78h-690q-2 -25 -2 -76q0 -39 2 -57
h655l-20 -78h-627q37 -221 181.5 -354.5t355.5 -133.5q160 0 289 76l30 -76q-61 -36 -147.5 -57.5t-177.5 -21.5q-235 0 -409 158t-214 409h-135z" />
    <glyph glyph-name="trademark" unicode="&#x2122;" horiz-adv-x="1413" 
d="M152 1331v62h479v-62h-205v-471h-70v471h-204zM659 860l89 537h30l158 -389h8l154 389h30l89 -537h-68l-53 338h-11l-143 -346h-10l-144 346h-8l-55 -338h-66z" />
    <glyph glyph-name="uni25FC" unicode="&#x25fc;" horiz-adv-x="931" 
d="M0 0v932h932v-932h-932z" />
    </font>
</defs>
</svg>
