<?xml version="1.0" encoding="utf-8"?>
<!-- Generator: Adobe Illustrator 16.0.4, SVG Export Plug-In . SVG Version: 6.00 Build 0)  -->
<!DOCTYPE svg PUBLIC "-//W3C//DTD SVG 1.1//EN" "http://www.w3.org/Graphics/SVG/1.1/DTD/svg11.dtd">
<svg version="1.1" xmlns="http://www.w3.org/2000/svg" xmlns:xlink="http://www.w3.org/1999/xlink" x="0px" y="0px"
	 width="28.882px" height="28.785px" viewBox="0 0 28.882 28.785" enable-background="new 0 0 28.882 28.785" xml:space="preserve">
<g id="simplified">
	<g>
		<polygon fill-rule="evenodd" clip-rule="evenodd" fill="#EACED5" points="19.819,9.832 18.876,13.984 26.048,12.474
			26.048,11.422 		"/>
	</g>
	<g>
		<polygon fill-rule="evenodd" clip-rule="evenodd" fill="#CC5E79" points="19.819,7.755 19.819,9.832 18.876,13.984 15.903,15.636
			11.562,15.636 11.562,11.011 13.968,9.076 5.944,6.056 10.286,5.112 14.771,0.204 18.497,0.865 19.3,3.554 18.376,4.541
			15.589,2.287 13.308,5.961 		"/>
	</g>
	<g>
		<polygon fill-rule="evenodd" clip-rule="evenodd" fill="#BA365A" points="15.241,18.892 7.927,18.892 4.058,14.833 3.112,12.946
			5.944,6.056 7.479,15.966 8.163,10.303 10.478,7.763 13.968,9.076 11.562,11.011 11.562,15.636 15.903,15.636 		"/>
	</g>
	<g>
		<polygon fill-rule="evenodd" clip-rule="evenodd" fill="#BA365A" points="0.798,8.191 3.112,12.946 5.944,6.056 3.71,4.814
			3.71,7.393 2.224,8.88 		"/>
	</g>
	<g>
		<polygon fill-rule="evenodd" clip-rule="evenodd" fill="#CC5E79" points="7.479,15.966 8.163,10.303 10.478,7.763 5.944,6.056
			"/>
	</g>
	<g>
		<polygon fill-rule="evenodd" clip-rule="evenodd" points="17.79,11.766 17.083,10.303 15.903,10.303 14.771,11.483 15.903,12.946
					"/>
	</g>
	<g>
		<polygon fill-rule="evenodd" clip-rule="evenodd" fill="#CC5E79" points="3.71,4.814 0.187,6.056 0.187,7.92 2.224,8.88
			3.71,7.393 		"/>
	</g>
	<g>
		<polygon fill-rule="evenodd" clip-rule="evenodd" fill="#BA365A" points="17.368,3.726 17.058,6.99 13.308,5.961 15.589,2.287
			"/>
	</g>
	<g>
		<polygon fill-rule="evenodd" clip-rule="evenodd" fill="#FFFFFF" points="16.032,10.681 16.351,11.707 17.2,11.242 16.929,10.681
					"/>
	</g>
	<polygon fill-rule="evenodd" clip-rule="evenodd" fill="#EFE4E7" points="26.048,12.946 26.048,12.474 18.876,13.984
		15.903,15.636 15.241,18.892 7.927,18.892 4.058,14.833 3.112,12.946 1.415,16.202 3.112,21.205 13.874,28.472 15.194,22.337
		18.593,18.892 26.048,18.892 28.093,16.533 28.093,14.406 	"/>
	<path fill="#5D101B" d="M20.009,9.685V7.611l-2.748-0.756l0.264-2.761l0.746,0.604l0.133,0.089l1.107-1.183l-0.865-2.905L14.7,0
		l-4.512,4.94L5.976,5.856l-2.25-1.249l-3.727,1.315V8.04l0.658,0.31l2.244,4.593L1.21,16.187l1.746,5.139l11.043,7.459l1.369-6.354
		l3.303-3.35h7.465l2.146-2.478v-1.83l0.598,0.427V11.95L20.009,9.685z M25.86,11.568v0.753l-6.734,1.417l0.834-3.676L25.86,11.568z
		 M10.386,5.284l4.453-4.875l3.512,0.622l0.736,2.474l-0.729,0.78l-2.816-2.279l-2.529,4.071l6.617,1.822v1.913l-0.92,4.049
		l-2.855,1.587h-4.105v-4.346l2.594-2.085L6.606,6.105L10.386,5.284z M17.171,3.809L16.89,6.752l-3.289-0.906l2.037-3.279
		L17.171,3.809z M7.714,16.257l6.492,2.447H8.089L7.714,16.257z M8.685,21.361l-5.152-4.773L3.36,13.863l0.527,1.055l3.885,4.086
		L8.685,21.361z M7.685,15.842l0.658-5.456l2.189-2.401l3.059,1.152l-2.219,1.785v4.904h4.299l-0.57,2.813L7.685,15.842z
		 M10.151,7.841l-2.168,2.379l-0.527,4.363L6.181,6.346L10.151,7.841z M7.261,15.797l0.389,2.531l-3.436-3.605l-0.893-1.785
		l2.541-6.185L7.261,15.797z M0.376,6.189l3.145-1.109v2.234L2.185,8.653L0.376,7.8V6.189z M2.265,9.107l1.633-1.636V5.134
		l1.811,1.003l-2.609,6.349L1.202,8.607L2.265,9.107z M13.747,28.16L3.271,21.083l-1.652-4.865l1.35-2.585l0.197,3.128l5.91,5.479
		l5.889,0.275L13.747,28.16z M15.12,22.145l-5.836-0.274l-1.082-2.79h9.938L15.12,22.145z M27.905,16.462l-1.943,2.241H15.474
		l0.596-2.945l2.873-1.596l6.918-1.457v0.336l2.045,1.461V16.462z"/>
</g>
</svg>
