<?xml version="1.0" encoding="utf-8"?>
<!-- Generator: Adobe Illustrator 16.0.4, SVG Export Plug-In . SVG Version: 6.00 Build 0)  -->
<!DOCTYPE svg PUBLIC "-//W3C//DTD SVG 1.1//EN" "http://www.w3.org/Graphics/SVG/1.1/DTD/svg11.dtd">
<svg version="1.1" id="Layer_1" xmlns="http://www.w3.org/2000/svg" xmlns:xlink="http://www.w3.org/1999/xlink" x="0px" y="0px"
	 width="209.772px" height="95.741px" viewBox="0 0 209.772 95.741" enable-background="new 0 0 209.772 95.741"
	 xml:space="preserve">
<path fill-rule="evenodd" clip-rule="evenodd" fill="#FFFFFF" d="M180.101,19.934c0,12.562-0.186,23.977,0.088,35.379
	c0.119,4.958-1.225,8.428-5.967,10.464c-5.943,2.554-13.559,9.006-17.248,7.208c-5.6-2.731-2.041-11.806-2.121-18.095
	C154.528,29.154,154.718,29.151,180.101,19.934z"/>
<path fill-rule="evenodd" clip-rule="evenodd" fill="#FFFFFF" d="M30.355,95.741c4.873-9.717,9.793-19.41,14.543-29.186
	c2.05-4.217,5.275-5.202,9.654-5.152c15.868,0.175,31.739,0.068,50.13,0.068C98.1,73.712,92.154,84.77,86.254,95.741h29.214
	c12.054-22.688,24.14-45.439,37.139-69.905c-35.348,0-68.203,0-102.492,0C55.111,16.267,59.358,8.133,63.605,0
	c-4.429,0-8.858,0-13.287,0C35.304,28.374,20.207,56.705,5.368,85.17C3.563,88.631,0.743,91.768,0,95.741H30.355z"/>
<path fill-rule="evenodd" clip-rule="evenodd" fill="#FFFFFF" d="M209.772,95.741c-0.538-4.045-3.647-7.043-5.676-10.277
	c-3.762-5.996-5.873-11.662-2.164-18.298c8.438-15.097-0.48-22.812-13.664-30.663c-0.533,17.248,4.928,36.424-18.828,40.864
	c4.696,7.783,11.505,11.933,15.162,18.375H209.772z"/>
</svg>
