<?xml version="1.0" encoding="utf-8"?>
<!-- Generator: Adobe Illustrator 16.0.4, SVG Export Plug-In . SVG Version: 6.00 Build 0)  -->
<!DOCTYPE svg PUBLIC "-//W3C//DTD SVG 1.1//EN" "http://www.w3.org/Graphics/SVG/1.1/DTD/svg11.dtd">
<svg version="1.1" xmlns="http://www.w3.org/2000/svg" xmlns:xlink="http://www.w3.org/1999/xlink" x="0px" y="0px"
	 width="33.438px" height="28.125px" viewBox="0 0 33.438 28.125" enable-background="new 0 0 33.438 28.125" xml:space="preserve">
<g id="Layer_1" display="none">
</g>
<g id="Layer_4">
</g>
<g id="Layer_2">
</g>
<g id="Layer_2_copy">
</g>
<g id="Layer_2_copy_2">
</g>
<g id="Layer_2_copy_3">
	<path  fill="#CECECE" d="
		M22.984,7.837c-0.398-1.911-7.07-3.697-7.07-3.697l2.126-3.827c0,0-5.533,0.19-8.916,6.171c0,0-2.094,5.386-5.349,10.376
		c-0.79,1.309-2.193,3.858-3.441,7.295l9.396,3.625l5.193-1.277c-1.611-1.853-0.99-5.16-0.946-5.378c0-0.001,0-0.001,0-0.001
		c0.001-0.007,0.004-0.021,0.004-0.021l0.004,0.002c0.096-0.226,0.193-0.447,0.297-0.653c0.726-1.447,3.034-2.481,4.75-1.843
		c1.39,0.518,2.655,1.124,3.314,1.257c4.921,0.983,5.542,0.643,7.166-0.478c1.173-0.81,1.652-2.116,2.233-3.267
		c0.108-0.215,0.573-0.364,0.664-0.569c0.543-1.229,0.77-2.219,0.77-2.219S23.583,10.713,22.984,7.837z"/>
	<path display="none" d="M-32.256,44.935c3.741-9.883,7.814-17.2,9.979-20.786C-12.386,8.989-5.78-7.597-5.355-8.673
		c2.728-5.974,14.647-13.849,23.05-18.704l-6.576,11.838l2.475,0.663c12.201,3.27,20.271,7.778,20.751,10.082
		c1.841,8.838,23.602,15.928,31.496,18.225c-0.355,1.152-0.906,2.754-1.678,4.532c-0.107,0.074-0.261,0.172-0.373,0.244
		c-0.604,0.384-1.355,0.861-1.773,1.69c-0.296,0.586-0.584,1.186-0.874,1.79c-1.453,3.025-2.826,5.883-5.483,7.716
		c-2.98,2.056-4.452,2.964-8.124,2.965c-2.758,0-6.598-0.533-12.84-1.781c-0.766-0.153-2.135-0.745-3.584-1.371
		c-3.518-1.52-8.334-3.601-13.364-3.601c-6.218,0-11.159,3.181-14.688,9.452c-3.837,6.82-5.749,14.593-7.237,22.14L-32.256,44.935z"
		/>
	<path display="none" fill="#FFFFFF" d="M26.534,15.003C22.144,10.836,10.257,9.17,15.923-2.33c2.847-5.776,6.323-7.935,9.08-8.654
		c5.098,2.151,8.986,4.487,9.341,6.19c0.452,2.169,2.108,4.232,4.46,6.146c-0.232,4.415-1.105,8.85-1.713,11.416
		C35.924,17.698,30.923,19.17,26.534,15.003z"/>
	<path display="none" fill="#FFFFFF" d="M50.274,7.887C42.673,4.567,35.376,0.162,34.344-4.794c-0.308-1.477-3.747-3.86-9.384-6.242
		c-1.252,0.412-2.527,1.037-3.803,1.952c-8.775,6.295-5.9,16.17-3.02,18.707c12.244,6.463,17.744-1.838,23.369,0
		C44.532,10.611,48.134,9.993,50.274,7.887z"/>
	<path fill="#FFFFFF" d="M27.485,12.43c-2.595-1.113-5.112-2.623-5.479-4.386c-0.133-0.462-1.493-1.226-3.296-1.933
		c-1.146,0.583-2.216,1.447-2.425,2.688c-0.484,2.873,0.329,3.936,3.587,5.475c3.257,1.54,3.178-1.304,4.771-1.714
		C25.425,12.359,26.477,12.595,27.485,12.43z"/>
	<path  fill="#CECECE" d="
		M18.852,10.376c0,0,0.672,0.872,2.283,0.807c0,0,0.535-0.47,0.805-1.812l-2.418-0.403L18.852,10.376z"/>
	<path fill="#FFFFFF" d="M2.2,22.166c0.61,0.139,1.252-0.016,1.771-0.536c1.676-1.677,3.115,0.958,4.551-2.474
		c0.685-1.635-0.645-3.266-2.221-4.53c-0.515,0.906-1.071,1.833-1.67,2.75C4.086,18.28,3.155,19.945,2.2,22.166z"/>
</g>
<g id="Layer_6">
</g>
<g id="Layer_7">
</g>
<g id="Layer_7_copy">
</g>
</svg>
