<?xml version="1.0" encoding="utf-8"?>
<!-- Generator: Adobe Illustrator 16.0.4, SVG Export Plug-In . SVG Version: 6.00 Build 0)  -->
<!DOCTYPE svg PUBLIC "-//W3C//DTD SVG 1.1//EN" "http://www.w3.org/Graphics/SVG/1.1/DTD/svg11.dtd">
<svg version="1.1" xmlns="http://www.w3.org/2000/svg" xmlns:xlink="http://www.w3.org/1999/xlink" x="0px" y="0px" width="87.5px"
	 height="72.5px" viewBox="0 0 87.5 72.5" enable-background="new 0 0 87.5 72.5" xml:space="preserve">
<g id="Layer_3">
	<rect fill="#EAEAEA" width="87.5" height="72.5"/>
	<path fill="#BFBE8C" d="M87.5,38.26c-8.004-1.227-16.377-1.882-25-1.882c-23.505,0-45.167,4.843-62.5,12.989V72.5h87.5V38.26z"/>
	<path fill="#C46B28" d="M55.908,62.5c0,0,4.092,2.25,5.842,0s-2.5-4-2.5-4l-0.21-14.493l-3.132,3.556V62.5z"/>
	<path fill="#C46B28" d="M36.088,47.979L35.454,59.25c0,0-5.223,0.088-3.468,3.832C33.157,65.58,36.5,64.75,37.75,64
		s1.674-12.376,1.674-12.376l3.326-5.685l-10.764-2.597L36.088,47.979z"/>
	<path fill="#DEDDDD" d="M37.75,48.046c0,0,1.5,7.454,9.75,7.454s9.234-4.125,9.492-7.938l1.923-10.647L46.75,36.378L35.454,41.25
		L37.75,48.046z"/>
	<polygon fill="#EAEAEA" points="20.5,34.25 31.5,20.5 31.5,14.5 42.75,11 55,14.75 55,29 55,38 49,48.5 24.25,47.5 	"/>
	<path fill="#353535" d="M35.75,28.75c0,0,13,0,8.75,8.25s-7.75,6.75-10.5,7s-8.5-6.5-8.25-10S29.5,29,35.75,28.75z"/>
	<polygon fill="#C46B28" points="42.75,11 42.75,23.25 55,29 55,14.75 	"/>
	<polygon fill="#C46B28" points="42.75,11 34,23.5 28.159,24.677 31.5,20.5 31.5,14.5 	"/>
	<circle fill="#4C4C4D" cx="34.5" cy="17.838" r="1.588"/>
	<circle fill="#4C4C4D" cx="50.463" cy="19.426" r="1.588"/>
	<path fill="#9F4D23" d="M55,14.75c7.25-3.5,11.25,6.265,11.25,6.265s6.5,10.485,6.5,11.735S72.5,42,60.25,49.5
		c0,0-3.75,3.5-5.25-11.5V14.75z"/>
	<path fill="#9F4D23" d="M23.633,45.319L20.5,34.25l11-13.75v-6l4.048-1.26H26.5c0,0-13,11.76-13,15.51s4.75,18.25,7,18.75
		S23.633,45.32,23.633,45.319L23.633,45.319z"/>
	<path fill="#E2E2E2" d="M37.75,64c0.84-0.504,1.307-5.923,1.523-9.421c-1.345-0.669-2.509-2.216-3.352-3.634l-0.467,8.305
		c0,0-5.223,0.088-3.468,3.832C33.157,65.58,36.5,64.75,37.75,64z"/>
	<path fill="#E2E2E2" d="M59.25,58.5l-0.085-5.902c-1.093,0.976-2.337,1.551-3.257,1.869V62.5c0,0,4.092,2.25,5.842,0
		S59.25,58.5,59.25,58.5z"/>
</g>
</svg>
