<?xml version="1.0" encoding="utf-8"?>
<!-- Generator: Adobe Illustrator 16.0.4, SVG Export Plug-In . SVG Version: 6.00 Build 0)  -->
<!DOCTYPE svg PUBLIC "-//W3C//DTD SVG 1.1//EN" "http://www.w3.org/Graphics/SVG/1.1/DTD/svg11.dtd">
<svg version="1.1" xmlns="http://www.w3.org/2000/svg" xmlns:xlink="http://www.w3.org/1999/xlink" x="0px" y="0px"
	 width="34.279px" height="31.13px" viewBox="0 0 34.279 31.13" enable-background="new 0 0 34.279 31.13" xml:space="preserve">
<g id="Layer_1" display="none">
</g>
<g id="Layer_4">
</g>
<g id="Layer_2">
</g>
<g id="Layer_2_copy">
</g>
<g id="Layer_2_copy_2">
</g>
<g id="Layer_6">
</g>
<g id="Layer_7">
</g>
<g id="Layer_7_copy">
	<path fill="#FFFFFF" d="M3.59,18.758c3.398-5.209,5.584-10.83,5.584-10.83c1.496-3.324,9.976-7.647,9.976-7.647l-2.89,5.202
		c0,0,6.963,1.863,7.379,3.859c0.626,3,10.641,5.736,10.641,5.736s-0.236,1.031-0.803,2.314c-0.096,0.215-0.58,0.37-0.692,0.595
		c-0.607,1.2-1.108,2.565-2.331,3.409c-1.695,1.169-2.344,1.525-7.479,0.498c-1.663-0.333-6.818-4.156-9.811,1.164
		c-1.34,2.381-1.946,5.095-2.49,7.979L0,26.371C1.302,22.785,2.766,20.123,3.59,18.758z"/>
	<path fill="#5D101B" d="M28.962,13.98c-2.756-1.131-5.601-2.709-5.975-4.503c-0.106-0.51-1.333-1.344-3.334-2.165
		c-1.362,0.604-2.759,1.568-3.006,3.034c-0.506,2.997,0.344,4.106,3.743,5.714c3.399,1.606,3.316-1.361,4.979-1.789
		C26.351,14.02,27.735,14.432,28.962,13.98z"/>
	<path fill="#FFFFFF" d="M20.064,11.51c0,0,0.554,0.721,1.884,0.665c0,0,0.443-0.388,0.665-1.496l-1.995-0.332L20.064,11.51z"/>
	<g>
		<path fill="#FFFFFF" d="M15.2,31.037h-0.084C15.2,31.246,15.2,31.037,15.2,31.037z"/>
		<path fill="#FFFFFF" d="M16.102,21.154c-0.937,0.35-1.714,1.087-2.358,2.229c-1.297,2.308-1.876,4.935-2.393,7.653h3.766
			c-0.092-0.231-0.286-0.971-0.692-3.062C13.936,25.459,15.143,22.787,16.102,21.154z"/>
	</g>
	<path fill="#5D101B" d="M3.797,23.736c1.75-1.75,3.25,0.999,4.75-2.582c0.758-1.811-0.848-3.621-2.619-4.97
		c-0.545,0.963-1.136,1.948-1.768,2.917c-0.58,0.959-1.57,2.725-2.584,5.091C2.315,24.517,3.148,24.385,3.797,23.736z"/>
</g>
</svg>
