<?xml version="1.0" encoding="utf-8"?>
<!-- Generator: Adobe Illustrator 16.0.4, SVG Export Plug-In . SVG Version: 6.00 Build 0)  -->
<!DOCTYPE svg PUBLIC "-//W3C//DTD SVG 1.1//EN" "http://www.w3.org/Graphics/SVG/1.1/DTD/svg11.dtd">
<svg version="1.1" id="Layer_1" xmlns="http://www.w3.org/2000/svg" xmlns:xlink="http://www.w3.org/1999/xlink" x="0px" y="0px"
	 width="423px" height="226px" viewBox="98.5 295.5 423 226" fill="#454443" xml:space="preserve">
<path d="M188.723,344.973c-17.398-7.652-5.518-2.698-21.748-9.746c-6.401-2.333-12.667-5.022-18.768-8.055
	c-2.699-1.53-4.027-5.638-5.759-8.578c3.504-0.967,7.612-3.665,10.431-2.698c24.849,8.82,21.345,6.323,46.154,15.224
	c4.164,0.952,8.475,1.075,12.686,0.362c4.994-0.362,9.948-1.732,14.941-1.853c14.579-0.282,29.199,0.725,43.697-0.322
	c26.85-1.933,53.698-4.484,80.548-7.652c19.734-2.336,39.388-5.679,58.961-9.183c7.247-1.332,14.306-3.536,21.022-6.564
	c12.646-5.639,25.292-8.659,38.824-4.028c2.607,0.606,4.96,2.015,6.726,4.028c7.652,13.25,20.902,16.875,34.192,20.137
	c7.813,1.853,7.732,5.679,5.155,11.599c-4.31,9.908-10.793,15.828-22.594,14.66c-7.651-0.765-15.425,0-23.157,0
	c-5.348-0.333-10.328,2.729-12.444,7.652c-2.34,1.688-5.383,2.053-8.055,0.966c-4.413-3.144-10.216-3.548-15.022-1.047
	c-26.299,11.599-45.67,31.414-64.438,52.356c-3.545,4.027-8.055,7.169-11.438,11.196c-3.095,2.918-5.419,6.557-6.766,10.592
	c-4.511,23.923-8.458,47.926-12.364,71.969c-1.087,6.686-3.826,11.438-11.115,11.317c-6.363,0-10.149-6.403-9.183-14.579
	c2.618-22.11,5.235-44.302,8.055-66.331c0.685-5.275-0.604-7.209-5.88-9.585c-17.519-8.055-34.515-16.875-51.55-25.735
	c-12.727-6.604-25.574-12.324-39.67-4.994c-5.648,3.198-10.872,7.095-15.545,11.6c-25.131,22.674-50.866,44.784-74.667,68.787
	c-8.055,8.055-11.116,21.104-16.11,32.018c-4.47,9.746-13.129,12.082-18.244,4.431c-1.667-3.591-1.898-7.683-0.645-11.438
	c6.869-22.775,18.885-43.666,35.119-61.055c9.03-9.771,15.892-21.341,20.137-33.951
	C167.619,385.247,172.694,363.217,188.723,344.973z"/>
<path d="M242.408,405.988c-2.417,6.726-5.316,13.29-7.088,20.137c-2.823,10.127-8.771,19.104-16.995,25.654
	c-3.36,3.438-6.953,6.641-10.753,9.585c-13.209,8.417-13.935,19.573-8.055,32.581c0.788,1.819,1.355,3.726,1.691,5.679
	c1.128,6.082-1.933,10.995-7.29,11.357c-4.509-0.148-8.647-2.535-11.035-6.363c-3.759-10.948-6.694-22.162-8.78-33.548
	c-0.062-3.303,1.035-6.523,3.101-9.102c13.758-19.688,30.248-37.315,48.973-52.356c4.12-2.593,8.561-4.638,13.21-6.081
	L242.408,405.988z"/>
<path d="M376.761,418.755l16.392-17.157c5.438,8.055,10.633,15.184,15.385,22.675c8.538,13.451,8.457,13.572-4.31,22.915
	c-6.604,4.833-13.371,9.425-20.137,14.258c-5.155,3.785-10.431,5.074-14.981-0.403s-2.095-10.512,2.899-14.499
	c3.493-2.876,7.136-5.564,10.914-8.055c5.034-3.182,5.679-6.443,1.329-10.753C381.795,425.198,379.661,422.218,376.761,418.755z"/>
</svg>
