<?xml version="1.0" encoding="utf-8"?>
<!-- Generator: Adobe Illustrator 16.0.4, SVG Export Plug-In . SVG Version: 6.00 Build 0)  -->
<!DOCTYPE svg PUBLIC "-//W3C//DTD SVG 1.1//EN" "http://www.w3.org/Graphics/SVG/1.1/DTD/svg11.dtd">
<svg version="1.1" id="Layer_1" xmlns="http://www.w3.org/2000/svg" xmlns:xlink="http://www.w3.org/1999/xlink" x="0px" y="0px"
	 width="34.279px" height="34.375px" viewBox="0 -1.06 34.279 34.375" enable-background="new 0 -1.06 34.279 34.375"
	 xml:space="preserve">
<circle fill="#FFB4B4" cx="17.14" cy="16.184" r="16.625"/>
<path fill="#FFFFFF" d="M20.064,11.51c0,0,0.554,0.721,1.884,0.665c0,0,0.443-0.388,0.665-1.496l-1.995-0.332L20.064,11.51z"/>
<path fill="#FFFFFF" d="M16.102,21.154c-0.938,0.351-1.714,1.087-2.358,2.229c-1.297,2.308-1.876,4.935-2.393,7.652h3.766
	c-0.092-0.23-0.286-0.971-0.692-3.062C13.936,25.459,15.143,22.788,16.102,21.154z"/>
<path fill="#FFFFFF" d="M33.701,14.911c-2.136-0.635-9.526-3.005-10.062-5.569c-0.416-1.996-7.38-3.859-7.38-3.859l2.891-5.202
	c0,0-8.48,4.323-9.977,7.646c0,0-2.186,5.621-5.584,10.831c-0.471,0.78-1.153,1.998-1.893,3.557
	c0.109,0.276,0.229,0.546,0.353,0.814c0.84-1.832,1.622-3.22,2.111-4.028c0.632-0.97,1.223-1.954,1.769-2.917
	c1.771,1.35,3.377,3.158,2.618,4.97c-1.5,3.581-3,0.832-4.75,2.582c-0.342,0.343-0.736,0.532-1.14,0.596
	c1.161,2.059,2.75,3.837,4.644,5.231l3.373,1.475c0.544-2.885,1.15-5.599,2.49-7.979c2.993-5.32,8.148-1.497,9.812-1.164
	c5.135,1.026,5.783,0.671,7.479-0.498c1.223-0.845,1.725-2.209,2.331-3.409c0.112-0.225,0.596-0.38,0.692-0.595
	c0.097-0.22,0.181-0.428,0.259-0.628c0.007-0.194,0.029-0.385,0.029-0.58C33.765,15.754,33.733,15.333,33.701,14.911z
	 M25.369,14.271c-1.663,0.428-1.58,3.396-4.979,1.789c-3.399-1.608-4.249-2.717-3.743-5.714c0.247-1.466,1.644-2.43,3.006-3.034
	c2.001,0.821,3.228,1.655,3.334,2.165c0.374,1.794,3.219,3.372,5.975,4.503C27.735,14.432,26.351,14.02,25.369,14.271z"/>
</svg>
