<?xml version="1.0" encoding="utf-8"?>
<!-- Generator: Adobe Illustrator 16.0.4, SVG Export Plug-In . SVG Version: 6.00 Build 0)  -->
<!DOCTYPE svg PUBLIC "-//W3C//DTD SVG 1.1//EN" "http://www.w3.org/Graphics/SVG/1.1/DTD/svg11.dtd">
<svg version="1.1" xmlns="http://www.w3.org/2000/svg" xmlns:xlink="http://www.w3.org/1999/xlink" x="0px" y="0px"
	 width="28.882px" height="28.785px" viewBox="0 0 28.882 28.785" enable-background="new 0 0 28.882 28.785" xml:space="preserve">
<g id="simplified_copy">
	<path fill-rule="evenodd" clip-rule="evenodd" fill="#FFFFFF" d="M17.086,10.303h-1.18l-1.133,1.18l1.133,1.463l1.887-1.18
		L17.086,10.303z M16.035,10.68h0.896l0.271,0.562l-0.85,0.465L16.035,10.68z"/>
	<path fill="#FFFFFF" d="M20.012,9.684V7.611l-2.748-0.757l0.264-2.761l0.746,0.604l0.133,0.089l1.107-1.183l-0.865-2.905L14.703,0
		l-4.512,4.94L5.979,5.856l-2.25-1.249L0.002,5.922V8.04L0.66,8.35l2.244,4.593l-1.691,3.243l1.746,5.14l11.043,7.459l1.369-6.354
		l3.303-3.35h7.465l2.146-2.478v-1.83l0.598,0.428V11.95L20.012,9.684z M25.863,11.568v0.753l-6.734,1.417l0.834-3.676
		L25.863,11.568z M10.389,5.284l4.453-4.876l3.512,0.622l0.736,2.475l-0.729,0.779l-2.816-2.278l-2.529,4.071l6.617,1.821v1.913
		l-0.92,4.049l-2.855,1.587h-4.105v-4.346l2.594-2.085L6.609,6.105L10.389,5.284z M17.174,3.808l-0.281,2.944l-3.289-0.906
		l2.037-3.278L17.174,3.808z M7.717,16.256l6.492,2.447H8.092L7.717,16.256z M8.688,21.361l-5.152-4.773l-0.172-2.725l0.527,1.055
		l3.885,4.086L8.688,21.361z M7.688,15.841l0.658-5.456l2.189-2.401l3.059,1.152l-2.219,1.784v4.904h4.299l-0.57,2.812L7.688,15.841
		z M10.154,7.841L7.986,10.22l-0.527,4.363L6.184,6.346L10.154,7.841z M7.264,15.797l0.389,2.531l-3.436-3.605l-0.893-1.785
		l2.541-6.185L7.264,15.797z M0.379,6.189l3.145-1.108v2.234L2.188,8.653L0.379,7.8V6.189z M2.268,9.107L3.9,7.471V5.134
		l1.811,1.003l-2.609,6.349L1.205,8.607L2.268,9.107z M13.75,28.16L3.273,21.083l-1.652-4.865l1.35-2.585l0.197,3.128l5.91,5.479
		l5.889,0.275L13.75,28.16z M15.123,22.145l-5.836-0.274l-1.082-2.79h9.938L15.123,22.145z M27.908,16.462l-1.943,2.241H15.477
		l0.596-2.945l2.873-1.596l6.918-1.456v0.336l2.045,1.461V16.462z"/>
</g>
</svg>
