<?xml version="1.0" encoding="utf-8"?>
<!-- Generator: Adobe Illustrator 16.0.4, SVG Export Plug-In . SVG Version: 6.00 Build 0)  -->
<!DOCTYPE svg PUBLIC "-//W3C//DTD SVG 1.1//EN" "http://www.w3.org/Graphics/SVG/1.1/DTD/svg11.dtd">
<svg version="1.1" xmlns="http://www.w3.org/2000/svg" xmlns:xlink="http://www.w3.org/1999/xlink" x="0px" y="0px"
	 width="46.869px" height="18.163px" viewBox="0 0 46.869 18.163" enable-background="new 0 0 46.869 18.163" xml:space="preserve">
<g id="terry-text_1_">
	<g>
		<path fill="#55171B" d="M2.48,0h2.143L3.936,3.233h1.831L5.409,4.914H3.578l-1.254,5.9c-0.054,0.252-0.072,0.448-0.052,0.588
			c0.019,0.141,0.074,0.245,0.163,0.315c0.091,0.07,0.219,0.112,0.384,0.126s0.875,0.021,1.113,0.021l-0.43,2.017h-1.39
			c-0.49,0-0.883-0.077-1.18-0.231c-0.297-0.153-0.518-0.35-0.662-0.588c-0.146-0.238-0.232-0.507-0.259-0.809
			c-0.026-0.301-0.011-0.591,0.048-0.871L2.48,0z"/>
		<path fill="#55171B" d="M7.039,9.365l-0.308,1.449C6.66,11.15,6.699,11.41,6.85,11.592s0.387,0.272,0.709,0.272
			c0.406,0,0.701-0.118,0.884-0.356c0.184-0.238,0.315-0.476,0.394-0.714h2.143c-0.096,0.448-0.258,0.868-0.488,1.26
			s-0.516,0.728-0.855,1.008c-0.343,0.294-0.729,0.525-1.155,0.693c-0.429,0.168-0.887,0.252-1.377,0.252
			c-0.658,0-1.194-0.14-1.612-0.42c-0.416-0.28-0.701-0.651-0.854-1.113c-0.095-0.28-0.131-0.602-0.109-0.966
			c0.021-0.364,0.078-0.763,0.171-1.197l0.745-3.507C5.535,6.37,5.646,5.971,5.781,5.606c0.133-0.363,0.306-0.686,0.52-0.966
			c0.35-0.462,0.793-0.833,1.328-1.113c0.536-0.279,1.133-0.42,1.791-0.42c0.49,0,0.916,0.084,1.279,0.252s0.649,0.403,0.859,0.704
			c0.208,0.301,0.344,0.654,0.404,1.061s0.042,0.84-0.057,1.302l-0.625,2.939H7.039z M7.396,7.686h2.1l0.259-1.218
			c0.087-0.406,0.058-0.711-0.089-0.914C9.521,5.352,9.286,5.25,8.964,5.25S8.365,5.352,8.133,5.554
			C7.901,5.757,7.742,6.062,7.655,6.468L7.396,7.686z"/>
	</g>
	<path fill="#55171B" d="M30.539,3.233L27.68,9.869h-0.042l-0.06-6.636H25.31l0.76,10.164c-0.199,0.477-1.557,3.523-2.146,4.765
		c0.192-0.019,0.385-0.046,0.575-0.092c0.316-0.077,0.629-0.21,0.936-0.399c0.306-0.188,0.594-0.44,0.863-0.756
		c0.271-0.314,0.512-0.711,0.725-1.187l5.723-12.495H30.539z"/>
	<g>
		<path fill="#55171B" d="M30.583,11.738h2.143l-0.455,2.143h-2.143L30.583,11.738z"/>
		<path fill="#55171B" d="M35.961,14.007c-0.252,0-0.503-0.039-0.753-0.115c-0.249-0.077-0.467-0.218-0.656-0.421
			c-0.188-0.202-0.315-0.489-0.384-0.86c-0.067-0.371-0.039-0.851,0.086-1.438c0.128-0.602,0.289-1.131,0.483-1.586
			s0.453-0.833,0.776-1.134s0.717-0.525,1.183-0.672c0.465-0.147,1.034-0.221,1.706-0.221c0.153,0,0.306,0.007,0.458,0.021
			c0.15,0.014,0.336,0.027,0.557,0.042l0.237-1.113c0.077-0.364,0.063-0.665-0.039-0.903c-0.104-0.237-0.358-0.356-0.764-0.356
			c-0.28,0-0.556,0.091-0.825,0.272c-0.27,0.183-0.477,0.448-0.62,0.798h-2.079c0.274-0.966,0.761-1.735,1.457-2.31
			c0.338-0.28,0.721-0.501,1.148-0.662c0.426-0.16,0.884-0.241,1.374-0.241c0.447,0,0.853,0.07,1.216,0.21
			c0.361,0.141,0.656,0.351,0.885,0.63c0.227,0.28,0.38,0.63,0.459,1.051c0.078,0.42,0.059,0.91-0.061,1.47l-1.576,7.413
			L35.961,14.007z M39.061,9.303c-0.229-0.042-0.421-0.063-0.575-0.063c-0.461,0-0.88,0.109-1.256,0.326
			c-0.375,0.217-0.623,0.612-0.744,1.187c-0.087,0.406-0.059,0.734,0.084,0.986s0.389,0.378,0.738,0.378
			c0.363,0,0.673-0.118,0.927-0.356c0.253-0.238,0.426-0.574,0.519-1.008L39.061,9.303z"/>
		<g>
			<polygon fill="#55171B" points="44.727,0 44.271,2.142 46.413,2.142 46.869,0 			"/>
			<polygon fill="#55171B" points="41.804,13.881 43.946,13.881 46.21,3.233 44.067,3.233 			"/>
		</g>
	</g>
	<path fill="#55171B" d="M19.155,3.148c-1.062,0.088-2.07,0.375-3.009,0.814l0.155-0.729h-2.143l-2.263,10.647h2.143l1.576-7.418
		c0.925-0.817,1.925-1.104,3.098-1.321L19.155,3.148z"/>
	<path fill="#55171B" d="M24.998,3.148c-1.062,0.088-2.07,0.375-3.009,0.814l0.155-0.729h-2.143l-2.263,10.647h2.143l1.576-7.418
		c0.925-0.817,1.925-1.104,3.098-1.321L24.998,3.148z"/>
</g>
</svg>
